<?xml version="1.0" encoding="UTF-8" standalone="no"?>
<!-- Created with Inkscape (http://www.inkscape.org/) -->
<svg
   xmlns:dc="http://purl.org/dc/elements/1.1/"
   xmlns:cc="http://creativecommons.org/ns#"
   xmlns:rdf="http://www.w3.org/1999/02/22-rdf-syntax-ns#"
   xmlns:svg="http://www.w3.org/2000/svg"
   xmlns="http://www.w3.org/2000/svg"
   xmlns:xlink="http://www.w3.org/1999/xlink"
   xmlns:sodipodi="http://sodipodi.sourceforge.net/DTD/sodipodi-0.dtd"
   xmlns:inkscape="http://www.inkscape.org/namespaces/inkscape"
   width="744.09448819"
   height="1052.3622047"
   id="svg5403"
   sodipodi:version="0.32"
   inkscape:version="0.46"
   sodipodi:docname="logo_apd.svg"
   inkscape:output_extension="org.inkscape.output.svg.inkscape"
   inkscape:export-filename="/home/emuller/theway/docs/NeuroTools/logo3.png"
   inkscape:export-xdpi="75"
   inkscape:export-ydpi="75">
  <defs
     id="defs5405">
    <linearGradient
       inkscape:collect="always"
       id="linearGradient5397">
      <stop
         style="stop-color:#000000;stop-opacity:1;"
         offset="0"
         id="stop5399" />
      <stop
         style="stop-color:#000000;stop-opacity:0;"
         offset="1"
         id="stop5401" />
    </linearGradient>
    <inkscape:perspective
       sodipodi:type="inkscape:persp3d"
       inkscape:vp_x="0 : 526.18109 : 1"
       inkscape:vp_y="0 : 1000 : 0"
       inkscape:vp_z="744.09448 : 526.18109 : 1"
       inkscape:persp3d-origin="372.04724 : 350.78739 : 1"
       id="perspective5411" />
    <linearGradient
       inkscape:collect="always"
       xlink:href="#linearGradient5397"
       id="linearGradient3366"
       gradientUnits="userSpaceOnUse"
       gradientTransform="translate(849.89045,267.23148)"
       x1="-405.71429"
       y1="58.076466"
       x2="-347.14285"
       y2="-30.494961" />
  </defs>
  <sodipodi:namedview
     id="base"
     pagecolor="#ffffff"
     bordercolor="#666666"
     borderopacity="1.0"
     gridtolerance="10000"
     guidetolerance="10"
     objecttolerance="10"
     inkscape:pageopacity="0.0"
     inkscape:pageshadow="2"
     inkscape:zoom="1.66"
     inkscape:cx="469.22664"
     inkscape:cy="246.60408"
     inkscape:document-units="px"
     inkscape:current-layer="layer1"
     showgrid="false"
     inkscape:window-width="1401"
     inkscape:window-height="1026"
     inkscape:window-x="119"
     inkscape:window-y="0" />
  <metadata
     id="metadata5408">
    <rdf:RDF>
      <cc:Work
         rdf:about="">
        <dc:format>image/svg+xml</dc:format>
        <dc:type
           rdf:resource="http://purl.org/dc/dcmitype/StillImage" />
      </cc:Work>
    </rdf:RDF>
  </metadata>
  <g
     inkscape:label="Layer 1"
     inkscape:groupmode="layer"
     id="layer1">
    <flowRoot
       xml:space="preserve"
       id="flowRoot5467"
       style="font-size:56px;font-style:normal;font-variant:normal;font-weight:normal;font-stretch:normal;text-indent:0;text-align:start;text-decoration:none;line-height:100%;letter-spacing:normal;word-spacing:normal;text-transform:none;direction:ltr;block-progression:tb;writing-mode:lr-tb;text-anchor:start;opacity:1;color:#000000;fill:#000000;fill-opacity:1;fill-rule:nonzero;stroke:none;stroke-width:1.26840555999999993;stroke-linecap:butt;stroke-linejoin:miter;marker:none;marker-start:none;marker-mid:none;marker-end:none;stroke-miterlimit:4;stroke-dasharray:none;stroke-dashoffset:0;stroke-opacity:1;visibility:visible;display:inline;overflow:visible;enable-background:accumulate;font-family:Times New Roman"><flowRegion
         id="flowRegion5469"><rect
           id="rect5471"
           width="404.061"
           height="94.954338"
           x="165.66502"
           y="100.79848"
           style="fill:#000000;fill-opacity:1;stroke:none" /></flowRegion><flowPara
         id="flowPara5473" /></flowRoot>    <flowRoot
       xml:space="preserve"
       id="flowRoot5984"
       style="font-size:56px;font-style:normal;font-variant:normal;font-weight:normal;font-stretch:normal;text-indent:0;text-align:start;text-decoration:none;line-height:100%;letter-spacing:normal;word-spacing:normal;text-transform:none;direction:ltr;block-progression:tb;writing-mode:lr-tb;text-anchor:start;opacity:1;color:#000000;fill:none;fill-opacity:1;fill-rule:nonzero;stroke:#0151a1;stroke-width:1.26840556;stroke-linecap:butt;stroke-linejoin:miter;marker:none;marker-start:none;marker-mid:none;marker-end:none;stroke-miterlimit:4;stroke-dasharray:none;stroke-dashoffset:0;stroke-opacity:1;visibility:visible;display:inline;overflow:visible;enable-background:accumulate;font-family:Times New Roman"><flowRegion
         id="flowRegion5986"><rect
           id="rect5988"
           width="193.9493"
           height="68.690376"
           x="125.25892"
           y="92.717262" /></flowRegion><flowPara
         id="flowPara5990" /></flowRoot>    <flowRoot
       xml:space="preserve"
       id="flowRoot5992"
       style="font-size:56px;font-style:normal;font-variant:normal;font-weight:normal;font-stretch:normal;text-indent:0;text-align:start;text-decoration:none;line-height:100%;letter-spacing:normal;word-spacing:normal;text-transform:none;direction:ltr;block-progression:tb;writing-mode:lr-tb;text-anchor:start;opacity:1;fill:#000000;fill-opacity:1;fill-rule:nonzero;stroke:none;stroke-width:1.26840556;stroke-linecap:butt;stroke-linejoin:miter;marker:none;marker-start:none;marker-mid:none;marker-end:none;stroke-miterlimit:4;stroke-dasharray:none;stroke-dashoffset:0;stroke-opacity:1;visibility:visible;display:inline;overflow:visible;enable-background:accumulate;font-family:Times New Roman"
       transform="translate(-74.199761,-53.649561)"><flowRegion
         id="flowRegion5994"><rect
           id="rect5996"
           width="472.7514"
           height="111.11678"
           x="117.1777"
           y="76.554825"
           style="fill:#000000;fill-opacity:1;stroke:none" /></flowRegion><flowPara
         id="flowPara5998">Complex logo:</flowPara></flowRoot>    <flowRoot
       xml:space="preserve"
       id="flowRoot6000"
       style="font-size:56px;font-style:normal;font-variant:normal;font-weight:normal;font-stretch:normal;text-indent:0;text-align:start;text-decoration:none;line-height:100%;letter-spacing:normal;word-spacing:normal;text-transform:none;direction:ltr;block-progression:tb;writing-mode:lr-tb;text-anchor:start;opacity:1;fill:#000000;fill-opacity:1;fill-rule:nonzero;stroke:none;stroke-width:1.26840556;stroke-linecap:butt;stroke-linejoin:miter;marker:none;marker-start:none;marker-mid:none;marker-end:none;stroke-miterlimit:4;stroke-dasharray:none;stroke-dashoffset:0;stroke-opacity:1;visibility:visible;display:inline;overflow:visible;enable-background:accumulate;font-family:Times New Roman"
       transform="translate(-87.379035,-249.47432)"><flowRegion
         id="flowRegion6002"><rect
           id="rect6004"
           width="523.25903"
           height="96.974648"
           x="129.29953"
           y="662.4433"
           style="fill:#000000;fill-opacity:1;stroke:none" /></flowRegion><flowPara
         id="flowPara6006">Simple logos:</flowPara></flowRoot>    <g
       id="g3368"
       transform="translate(-4.4444444,-104.44444)">
      <path
         style="fill:#ffffff;fill-opacity:1;fill-rule:nonzero;stroke:#000000;stroke-width:1.26800001;stroke-linecap:butt;stroke-linejoin:miter;marker:none;marker-start:none;marker-mid:none;marker-end:none;stroke-miterlimit:4;stroke-dasharray:none;stroke-dashoffset:0;stroke-opacity:1;visibility:visible;display:inline;overflow:visible;enable-background:accumulate"
         d="M 22.125256,773.60052 L 177.68876,897.84929 L 296.52787,707.0494 L 135.25009,648.53234 L 22.125256,773.60052 z"
         id="path6016"
         sodipodi:nodetypes="ccccc" />
      <path
         sodipodi:nodetypes="csssssssssccccczcssssssssssssssssssssssssszcczzczsssszzczzzzzcccczzzzzzzzsccssssssssszcszszzczssssssssszcccccssssssccssssscccsszzzzszczzsz"
         style="font-size:56.00000381px;font-style:normal;font-variant:normal;font-weight:normal;font-stretch:normal;text-indent:0;text-align:start;text-decoration:none;line-height:100%;letter-spacing:normal;word-spacing:normal;text-transform:none;direction:ltr;block-progression:tb;writing-mode:lr-tb;text-anchor:start;fill:#000000;fill-opacity:1;stroke:none;stroke-width:1.26840556;marker:none;marker-start:none;marker-mid:none;marker-end:none;visibility:visible;display:inline;overflow:visible;enable-background:accumulate;font-family:Apple LiGothic;-inkscape-font-specification:Apple LiGothic"
         d="M 242.00636,704.08796 C 240.91812,703.75855 239.3733,703.45368 236.90443,703.07213 C 229.53021,701.93246 222.45093,701.75718 215.06558,702.46298 C 210.59647,702.89008 207.55857,703.45976 201.9441,704.91372 C 196.3499,706.36245 193.65639,707.30226 191.15633,708.63856 C 189.69733,709.41839 189.56273,709.49764 189.00481,710.45968 C 188.2791,711.711 188.2333,712.14012 188.74045,712.51217 C 189.23273,712.87325 190.51637,712.84252 193.00567,712.44163 C 198.03086,711.63234 199.62109,711.47703 202.35822,711.47985 C 207.4423,711.48507 215.60953,710.88967 219.45079,712.40607 C 221.86732,713.36004 228.43318,716.05967 229.78241,717.50977 C 229.78241,717.50977 169.28168,807.19798 169.28168,807.19798 C 169.28168,807.19798 157.37219,677.23805 157.37219,677.23805 C 157.37219,677.23805 143.43749,672.09954 143.43749,672.09954 C 122.25145,696.64052 101.2998,721.49302 80.021998,745.89392 C 79.493468,746.09089 78.710948,746.14078 78.074268,745.81396 C 77.437578,745.48714 76.961458,744.50194 76.309078,743.55282 C 75.705688,742.38561 75.608218,741.99569 74.656388,736.1998 C 74.201118,733.4276 73.888708,732.36414 72.665978,729.37099 C 70.813248,724.83567 69.053058,720.92882 68.890338,720.97236 C 68.819198,720.99141 68.997708,721.7025 69.255248,722.54378 C 70.230878,725.73083 70.487938,726.5591 70.693568,727.08127 C 71.247068,728.4867 71.360688,728.73252 71.595798,729.4853 C 72.022118,730.85035 72.454858,733.17819 72.643538,735.16684 C 72.743028,736.21546 73.026008,737.91302 73.309018,738.93772 C 73.867908,740.96134 74.042758,744.4007 73.631118,745.71466 C 73.492938,746.15574 73.224728,747.02873 72.851228,747.54792 C 72.081108,748.61844 69.939278,751.02427 69.801448,751.13417 C 69.479348,751.39101 68.924938,751.53967 68.773098,751.62472 C 68.214808,751.93744 64.190818,752.66609 63.279828,752.56216 C 62.471728,752.46996 61.162388,750.58208 61.081958,750.49288 C 60.701808,750.07133 57.951938,746.23982 56.254758,744.04381 C 54.557588,741.84779 48.695636,738.4491 48.665736,738.34451 C 48.650796,738.29225 56.277348,744.98033 56.974498,748.0088 C 57.323078,749.52304 59.233628,752.8425 59.763808,754.87505 C 60.293998,756.9076 59.035878,759.04311 58.816618,759.38629 C 58.505498,759.87325 56.998148,761.27529 56.820088,761.46087 C 56.276348,762.02757 53.347418,763.87769 51.124308,764.73449 C 49.381626,765.40613 49.053026,765.4652 48.374446,765.26761 C 43.369696,763.8103 38.079886,763.2066 32.989666,763.49906 C 30.612276,763.63565 22.667156,764.59696 22.655256,764.75457 C 22.644656,764.89469 28.309956,764.74387 31.561856,764.5042 C 32.651826,764.42386 33.450456,764.47256 33.665266,764.45336 C 33.880076,764.43416 34.664006,764.43316 35.190186,764.44599 C 36.285496,764.52875 36.606996,764.63759 37.614966,765.34887 C 38.486426,765.82704 38.680466,766.58264 38.971566,767.00075 C 39.262666,767.41886 39.923006,769.54941 39.779896,769.92328 C 39.636786,770.29716 39.320536,770.57973 38.945776,770.9908 C 38.525126,771.23145 38.347536,771.3859 38.097866,771.52142 C 37.860186,771.65045 35.415506,772.88341 33.814176,773.54833 C 33.127946,773.83325 31.637256,774.32007 30.540926,774.61999 C 27.769556,775.37815 18.524356,778.28977 18.380956,778.44676 C 18.108956,778.74467 18.580556,778.72147 21.053756,778.32503 C 24.510256,777.77095 37.739996,774.37288 38.644556,774.1122 C 39.540246,773.85408 45.203766,772.40502 45.661906,772.36775 C 46.151396,772.32793 47.014266,772.19902 47.609006,772.18309 C 48.486116,772.23105 49.130016,772.32914 50.063168,773.01797 C 50.981008,773.69551 52.049088,774.59766 52.562108,775.89036 C 53.079548,777.19416 53.126978,777.94469 53.143208,778.53854 C 53.159448,779.13238 53.111388,779.59261 52.996928,780.18159 C 52.881468,780.77569 52.116558,783.0968 51.642258,784.32358 C 51.161218,785.56779 50.722458,786.59465 50.431858,787.44394 C 50.431858,787.44394 49.895778,788.96369 49.895778,788.96369 C 49.895778,788.96369 45.656536,794.16053 45.656536,794.16053 C 43.203986,796.78431 41.147186,799.46212 39.594246,802.62444 C 39.123566,803.5687 37.618866,806.50873 37.998536,806.69028 C 38.393836,806.87931 41.626436,803.83138 42.661666,802.4449 C 43.696896,801.05841 44.734136,799.16602 45.590386,798.13397 C 46.468386,797.07572 50.173648,792.32508 51.508488,791.06332 C 52.841248,789.80353 53.910518,788.79396 54.504248,788.44217 C 55.116628,788.07933 56.113968,787.45617 56.874088,787.0714 C 57.651368,786.67794 58.842528,786.01922 60.744378,785.68348 C 62.638088,785.34917 65.392328,786.04182 66.297258,787.12334 C 67.220298,788.22651 67.241368,788.0408 68.001108,790.13696 C 69.191798,793.42215 69.521528,794.91088 69.510358,797.21172 C 69.542958,799.70665 68.914958,802.12146 68.614908,804.58157 C 66.978868,815.40627 66.811068,818.8928 67.698578,824.26073 C 68.128168,826.8591 69.401938,831.21638 69.731648,831.14342 C 70.140048,831.05297 69.625948,827.17027 68.829578,824.41606 C 68.205438,822.25755 67.927238,820.74557 67.934978,819.26596 C 67.945258,817.29725 68.396948,813.14281 68.681978,812.27891 C 68.752578,812.06492 68.951648,811.29819 69.121078,810.5393 C 69.290078,809.78235 69.702958,808.20034 70.029778,807.04299 C 70.355348,805.89008 70.991158,803.00357 71.439718,800.63502 C 72.655808,794.2137 72.717498,793.98475 73.948538,792.30456 C 74.664148,791.32785 75.056518,791.04116 75.795568,790.51137 C 76.534618,789.98158 77.865948,789.61082 79.648498,789.52913 C 80.895308,789.63205 81.481448,789.89962 82.270918,790.32967 C 82.805668,790.62097 83.061028,790.7926 83.374038,791.01476 C 83.697228,791.24414 89.019098,794.64454 92.170748,797.18878 C 95.680408,800.02222 103.708,804.89787 104.36756,805.24568 C 105.01833,805.58885 105.84378,805.90468 105.8395,805.6123 C 105.83555,805.34224 104.82206,804.40035 103.50666,803.41671 C 102.1135,802.44778 100.93695,801.40578 99.525258,800.29253 C 98.099768,799.16839 94.118398,795.73333 92.798158,793.79252 C 91.440118,791.79613 90.647628,787.31002 90.112048,785.36465 C 89.891778,784.5646 89.825368,784.07939 89.755878,782.22844 C 89.743968,781.91107 91.138218,779.70253 93.505558,779.07126 C 95.872898,778.44 99.034758,777.68957 102.20093,776.89557 C 105.36709,776.10157 108.53757,775.26399 110.92213,774.45841 C 113.3067,773.65284 114.90536,772.87927 114.92789,772.21329 C 114.95042,771.54731 100.85219,774.41526 98.757038,774.23535 C 96.884358,774.07454 96.034108,774.3991 93.711828,773.68454 C 91.389548,772.96999 94.125748,775.33525 90.106768,769.37375 C 85.958068,763.21984 89.573088,753.99505 89.180028,756.88308 C 89.180028,756.88308 143.6849,690.70525 143.6849,690.70525 C 143.6849,690.70525 153.67121,837.34091 153.67121,837.34091 C 153.67121,837.34091 165.32695,848.41862 165.32695,848.41862 C 165.32695,848.41862 245.84232,726.10431 245.84232,726.10431 C 246.62942,726.24119 247.59469,726.5842 250.0816,727.56333 C 252.23597,728.41188 256.6795,730.22646 259.92377,731.61198 C 267.97745,735.05196 266.02574,734.36043 269.43746,729.69468 C 270.58772,728.12175 271.50909,726.74517 271.4893,726.62652 C 271.4696,726.50779 272.23454,724.95373 273.18536,723.18877 C 275.1702,719.50402 275.22182,719.20343 273.5289,717.98333 C 271.42381,716.46625 266.60074,714.61679 261.86541,713.30575 C 257.71038,711.92616 253.46195,710.68033 249.45915,708.97954 C 248.73776,708.83279 246.10141,707.00525 246.26244,706.76678 C 246.3206,706.68063 246.23794,706.63726 246.07573,706.64933 C 245.91347,706.66153 245.87331,706.55544 245.94302,706.45231 C 246.01289,706.34895 245.92525,706.28461 245.78358,706.29522 C 245.64193,706.30583 245.04979,705.8785 244.43091,705.35934 C 243.73985,704.77949 243.09833,704.41823 242.00649,704.08777 C 242.00649,704.08777 242.00636,704.08796 242.00636,704.08796 M 75.099918,762.99768 C 76.079298,763.6143 76.682858,764.86522 77.084098,765.67443 C 77.992938,767.50718 77.969858,769.71642 76.987828,770.89292 C 76.486788,771.49317 75.590528,772.10234 75.244578,772.23704 C 74.883998,772.37744 74.025978,772.66831 73.543628,772.85167 C 73.072548,773.03074 72.153908,773.29815 71.692548,773.30236 C 71.231188,773.30657 70.629808,773.25947 70.056458,773.18087 C 69.488198,773.10296 66.582288,771.17788 66.268988,770.76416 C 65.664238,769.96547 65.094878,768.8593 65.045658,768.16627 C 64.996448,767.47324 65.059108,766.72832 65.296308,765.73116 C 65.646228,764.8085 67.021598,763.10196 67.360528,762.77917 C 67.716348,762.44029 68.537048,762.20023 68.808898,762.04708 C 69.080748,761.89392 70.515768,761.62463 71.912748,761.74491 C 73.309718,761.86519 74.120528,762.38106 75.099918,762.99768 z"
         id="path6018" />
    </g>
    <flowRoot
       xml:space="preserve"
       id="flowRoot6020"
       style="font-size:56px;font-style:normal;font-variant:normal;font-weight:normal;font-stretch:normal;text-indent:0;text-align:start;text-decoration:none;line-height:100%;letter-spacing:normal;word-spacing:normal;text-transform:none;direction:ltr;block-progression:tb;writing-mode:lr-tb;text-anchor:start;opacity:1;fill:#000000;fill-opacity:1;fill-rule:nonzero;stroke:none;stroke-width:1.26840556;stroke-linecap:butt;stroke-linejoin:miter;marker:none;marker-start:none;marker-mid:none;marker-end:none;stroke-miterlimit:4;stroke-dasharray:none;stroke-dashoffset:0;stroke-opacity:1;visibility:visible;display:inline;overflow:visible;enable-background:accumulate;font-family:Times New Roman"
       transform="matrix(0.7219365,0,0,0.7219365,-258.42406,-39.896575)"><flowRegion
         id="flowRegion6022"><rect
           id="rect6024"
           width="398.00009"
           height="141.42136"
           x="436.38589"
           y="714.97125"
           style="fill:#000000;fill-opacity:1;stroke:none" /></flowRegion><flowPara
         id="flowPara6026">(favicon...)</flowPara></flowRoot>    <g
       id="g3356"
       transform="translate(168.88889,-95.555556)">
      <path
         style="opacity:1;fill:#ffffff;fill-opacity:1;fill-rule:nonzero;stroke:#000000;stroke-width:1.26840556;stroke-linecap:butt;stroke-linejoin:miter;marker:none;marker-start:none;marker-mid:none;marker-end:none;stroke-miterlimit:4;stroke-dasharray:none;stroke-dashoffset:0;stroke-opacity:1;visibility:visible;display:inline;overflow:visible;enable-background:accumulate"
         d="M 394.56419,543.31174 L 394.56419,385.22287 L 548.10738,265.51979 L 549.62261,374.61626 L 394.56419,543.31174 z"
         id="path5078" />
      <path
         style="opacity:1;fill:#ffffff;fill-opacity:1;fill-rule:nonzero;stroke:#000000;stroke-width:1.26840556;stroke-linecap:butt;stroke-linejoin:miter;marker:none;marker-start:none;marker-mid:none;marker-end:none;stroke-miterlimit:4;stroke-dasharray:none;stroke-dashoffset:0;stroke-opacity:1;visibility:visible;display:inline;overflow:visible;enable-background:accumulate"
         d="M 393.80191,542.16212 L 393.80191,384.57832 L 239.97219,264.6085 L 239.2579,373.17992 L 393.80191,542.16212 z"
         id="path5081" />
      <path
         style="font-size:56px;font-style:normal;font-variant:normal;font-weight:normal;font-stretch:normal;text-indent:0;text-align:start;text-decoration:none;line-height:100%;letter-spacing:normal;word-spacing:normal;text-transform:none;direction:ltr;block-progression:tb;writing-mode:lr-tb;text-anchor:start;fill:#000000;fill-opacity:1;fill-rule:nonzero;stroke:none;stroke-width:1.26840556;stroke-linecap:butt;stroke-linejoin:miter;marker:none;marker-start:none;marker-mid:none;marker-end:none;stroke-miterlimit:4;stroke-dashoffset:0;stroke-opacity:1;visibility:visible;display:inline;overflow:visible;enable-background:accumulate;font-family:Times New Roman"
         d="M 248.11261,279.48345 C 248.11261,279.48345 255.22909,285.0157 255.22909,285.0157 C 255.22909,285.0157 272.52574,376.30582 272.52574,376.30582 C 272.52574,376.30582 272.52574,316.44934 272.52574,316.44934 C 272.52565,310.07085 272.32045,305.9264 271.91068,304.01944 C 271.37077,301.45424 270.52072,299.71832 269.36521,298.81015 C 269.36521,298.81015 268.35361,298.01516 268.35361,298.01516 C 268.35361,298.01516 268.35361,295.21847 268.35361,295.21847 C 268.35361,295.21847 278.80288,303.34158 278.80288,303.34158 C 278.80288,303.34158 278.80288,306.22693 278.80288,306.22693 C 278.80288,306.22693 277.7101,305.36813 277.7101,305.36813 C 276.41392,304.34963 275.5006,304.97043 274.96393,307.21929 C 274.63669,308.60159 274.47343,312.2173 274.47343,318.06843 C 274.47343,318.06843 274.47343,406.06739 274.47343,406.06739 C 274.47343,406.06739 273.67387,405.19318 273.67387,405.19318 C 273.67387,405.19318 254.97214,305.5559 254.97214,305.5559 C 254.97214,305.5559 254.97214,366.10785 254.97214,366.10785 C 254.97214,372.15095 255.14998,376.11135 255.50629,377.99222 C 256.00921,380.56755 256.78645,382.42543 257.84215,383.56544 C 257.84215,383.56544 258.81037,384.61104 258.81037,384.61104 C 258.81037,384.61104 258.81037,387.32675 258.81037,387.32675 C 258.81037,387.32675 249.53686,377.23397 249.53686,377.23397 C 249.53686,377.23397 249.53686,374.59694 249.53686,374.59694 C 249.53686,374.59694 250.43614,375.56802 250.43614,375.56802 C 251.55304,376.77414 252.34747,376.38543 252.81439,374.39096 C 253.10032,373.15851 253.24351,369.80089 253.24351,364.31969 C 253.24351,364.31969 253.24351,296.30968 253.24351,296.30968 C 252.47698,292.37311 251.89486,289.72465 251.49508,288.35259 C 251.10916,286.99439 250.53856,285.56411 249.78508,284.06472 C 249.41608,283.3466 248.8579,282.69422 248.11261,282.10839 C 248.11261,282.10839 248.11261,279.48345 248.11261,279.48345 M 284.56324,370.07267 C 284.54749,380.84237 285.3286,390.09236 286.91755,397.87657 C 288.52117,405.73247 290.42431,410.84639 292.63669,413.18569 C 294.12709,414.76168 295.42894,414.80229 296.5381,413.2906 C 297.67102,411.73222 298.62349,408.04479 299.39254,402.21713 C 299.39254,402.21713 300.19075,404.67875 300.19075,404.67875 C 299.82976,411.87641 298.78558,417.67843 297.06982,422.06403 C 295.37035,426.35351 293.26444,427.10116 290.76667,424.36666 C 288.09475,421.44156 285.83548,415.57217 283.97374,406.79644 C 282.14728,398.07815 281.24134,388.0723 281.24134,376.70996 C 281.24134,364.40517 282.17059,355.68004 284.04439,350.49247 C 285.95455,345.20903 288.37618,343.81701 291.33052,346.39268 C 293.86951,348.60643 295.98262,353.23417 297.6541,360.30115 C 299.34115,367.37956 300.19066,375.64067 300.19075,385.0345 C 300.19075,385.0345 284.56324,370.07267 284.56324,370.07267 M 284.56324,365.47308 C 284.56324,365.47308 294.87706,375.21038 294.87706,375.21038 C 294.79354,370.3415 294.61831,366.80529 294.35173,364.60248 C 293.93593,361.18091 293.31403,358.23173 292.48828,355.75757 C 291.68278,353.30964 290.84011,351.69791 289.96081,350.91689 C 288.61783,349.72422 287.4211,350.39381 286.36774,352.90737 C 285.33652,355.36739 284.73649,359.55376 284.56324,365.47308 M 325.71718,378.85799 C 325.71718,378.85799 325.71718,428.10925 325.71718,428.10925 C 325.71709,437.51579 325.78612,443.35607 325.92427,445.63133 C 326.08222,447.8698 326.31946,449.57188 326.63626,450.73767 C 326.97331,451.92641 327.36067,452.75433 327.7987,453.2207 C 328.41754,453.87957 329.11855,454.11874 329.90272,453.93604 C 329.90272,453.93604 330.32626,457.52827 330.32626,457.52827 C 330.32626,457.52827 322.20016,458.77919 322.20016,458.77919 C 322.20016,458.77919 320.89768,457.35331 320.89768,457.35331 C 320.89768,457.35331 320.89768,440.35199 320.89768,440.35199 C 318.64192,445.4169 316.9393,448.24973 315.77524,448.89214 C 314.61829,449.53059 313.40365,449.14906 312.13267,447.75761 C 310.72444,446.21591 309.50773,443.63685 308.47885,440.02684 C 307.47355,436.39971 306.77668,432.41336 306.38473,428.06003 C 305.99359,423.71592 305.79838,417.95595 305.79838,410.77316 C 305.79838,410.77316 305.79838,376.34638 305.79838,376.34638 C 305.79838,372.69896 305.67418,370.06174 305.42623,368.43642 C 305.17846,366.81344 304.80757,365.41828 304.31419,364.25169 C 303.83971,363.04816 302.97292,361.91688 301.71958,360.86101 C 301.71958,360.86101 301.71958,357.78121 301.71958,357.78121 C 301.71958,357.78121 310.26949,365.29053 310.26949,365.29053 C 310.26949,365.29053 310.26949,417.51718 310.26949,417.51718 C 310.26949,424.78746 310.66981,429.97938 311.47297,433.10303 C 312.298,436.25975 313.29286,438.46301 314.46025,439.7081 C 315.26116,440.56237 316.16872,440.75135 317.18428,440.27035 C 318.22432,439.80679 319.46083,438.11536 320.89768,435.18146 C 320.89768,435.18146 320.89768,389.69851 320.89768,389.69851 C 320.89768,385.14147 320.61904,381.82407 320.06302,379.75082 C 319.5277,377.64247 318.40459,375.77294 316.70404,374.14882 C 316.70404,374.14882 316.70404,370.94188 316.70404,370.94188 C 316.70404,370.94188 325.71718,378.85799 325.71718,378.85799 M 340.74196,389.56502 C 340.74196,389.56502 340.74196,408.55545 340.74196,408.55545 C 343.204,398.08117 345.7618,393.94296 348.4186,396.25977 C 349.63765,397.32301 350.65168,399.27785 351.45754,402.12793 C 352.26646,404.92609 352.67218,407.72144 352.67218,410.50578 C 352.67218,412.97381 352.37914,414.79582 351.79423,415.96933 C 351.21094,417.13959 350.51767,417.35384 349.7155,416.61668 C 348.93853,415.90283 348.06526,414.03657 347.09686,411.0266 C 346.15492,407.98846 345.4567,406.26796 344.99977,405.85531 C 344.60899,405.50245 344.18644,405.74073 343.73248,406.56824 C 342.76291,408.22077 341.76589,411.46858 340.74196,416.29914 C 340.74196,416.29914 340.74196,456.76906 340.74196,456.76906 C 340.74196,461.43985 340.94419,465.18797 341.34928,468.01776 C 341.62693,469.97664 342.11914,471.89067 342.82744,473.7628 C 343.53817,475.64146 344.56561,477.30818 345.91462,478.76522 C 345.91462,478.76522 345.91462,482.12667 345.91462,482.12667 C 345.91462,482.12667 331.11529,466.01984 331.11529,466.01984 C 331.11529,466.01984 331.11529,462.78058 331.11529,462.78058 C 332.53954,464.31884 333.60415,464.80478 334.30345,464.22845 C 334.81915,463.81409 335.18104,462.65666 335.38804,460.75557 C 335.49163,459.83462 335.54347,456.94742 335.54347,452.0944 C 335.54347,452.0944 335.54347,419.79135 335.54347,419.79135 C 335.54347,410.08536 335.47093,404.25557 335.32594,402.30309 C 335.20174,400.31044 334.95352,398.72133 334.58182,397.53653 C 334.23136,396.37274 333.78901,395.55025 333.25549,395.0686 C 332.62117,394.49616 331.90756,394.3028 331.11529,394.48658 C 331.11529,394.48658 330.81145,390.97454 330.81145,390.97454 C 330.81145,390.97454 339.40582,388.39979 339.40582,388.39979 C 339.40582,388.39979 340.74196,389.56502 340.74196,389.56502 M 370.35079,415.38676 C 375.51382,419.88955 379.74949,428.9097 383.00002,442.51474 C 385.79821,454.28323 387.21058,466.22239 387.21058,478.22072 C 387.21058,486.65384 386.43073,494.39646 384.87904,501.41193 C 383.33806,508.37891 381.22693,512.57645 378.56185,514.02737 C 375.95392,515.48831 373.07833,514.47918 369.94642,511.05043 C 364.93729,505.56655 361.03885,495.9724 358.19332,482.31234 C 355.82065,470.94158 354.64435,459.80433 354.64435,448.80439 C 354.64435,440.79296 355.35166,433.51486 356.77339,426.93657 C 358.22806,420.27026 360.14839,416.08866 362.54707,414.4124 C 364.9732,412.65192 367.57249,412.96389 370.35079,415.38676 M 369.21319,420.81121 C 367.92385,419.66764 366.63019,419.56681 365.3323,420.49928 C 364.06609,421.38264 363.04423,424.03164 362.26348,428.4381 C 361.48543,432.82844 361.09753,439.02087 361.09753,447.02748 C 361.09753,459.94145 362.02741,472.03101 363.89941,483.37093 C 365.81209,494.83724 368.34874,502.30657 371.53141,505.73906 C 373.93702,508.33351 375.94132,507.8215 377.5327,504.16152 C 379.13569,500.47475 379.94164,492.0448 379.94164,478.89193 C 379.94164,462.43394 378.6001,448.23521 375.94132,436.40391 C 374.16157,428.39574 371.914,423.20692 369.21319,420.81121"
         id="path5072" />
      <path
         id="path5074"
         d="M 448.03907,359.34454 C 448.03907,359.34454 448.71443,386.52354 448.71443,386.52354 C 448.71443,386.52354 447.32384,387.72831 447.32384,387.72831 C 447.03224,383.06847 446.64875,379.88701 446.17274,378.18276 C 445.39415,375.43875 444.35699,373.80736 443.0573,373.2924 C 441.77471,372.69512 440.07083,373.26101 437.93549,375.0054 C 437.93549,375.0054 430.48601,381.09186 430.48601,381.09186 C 430.48601,381.09186 430.77059,475.84788 430.77059,475.84788 C 430.79354,483.54102 431.16812,487.96275 431.89253,489.10227 C 432.908,490.60021 434.45402,490.22304 436.5188,487.99171 C 436.5188,487.99171 438.34445,486.01884 438.34445,486.01884 C 438.34445,486.01884 438.35687,489.38245 438.35687,489.38245 C 438.35687,489.38245 414.87416,514.94651 414.87416,514.94651 C 414.87416,514.94651 414.86867,511.38776 414.86867,511.38776 C 414.86867,511.38776 416.92769,509.16263 416.92769,509.16263 C 419.36237,506.53163 421.06958,503.04114 422.0657,498.68579 C 422.67185,496.02111 422.96597,491.11432 422.94968,483.9656 C 422.94968,483.9656 422.72828,387.4303 422.72828,387.4303 C 422.72828,387.4303 415.91906,392.99364 415.91906,392.99364 C 413.216,395.20256 411.27596,397.23077 410.11892,399.06598 C 408.60566,401.51708 407.30336,404.92128 406.21562,409.28316 C 405.12185,413.66883 404.47052,418.9216 404.26541,425.03276 C 404.26541,425.03276 402.55784,426.51216 402.55784,426.51216 C 402.55784,426.51216 403.26236,395.12546 403.26236,395.12546 C 403.26236,395.12546 448.03907,359.34454 448.03907,359.34454 M 463.66794,381.5781 C 468.31408,377.45912 471.99591,378.54807 474.76839,384.71532 C 477.09624,389.9379 478.28581,397.2642 478.35565,406.74742 C 478.40461,413.42282 477.83186,420.82371 476.63015,428.99199 C 475.41891,437.224 473.70014,444.33015 471.46015,450.31695 C 469.21435,456.35382 466.66026,460.95585 463.78738,464.10075 C 459.01387,469.32625 455.11298,468.7745 452.14307,462.29015 C 449.60642,456.76903 448.30448,448.89799 448.25768,438.73503 C 448.22375,431.34494 448.94717,423.29953 450.41858,414.64737 C 451.90097,405.98936 453.84398,398.88474 456.23465,393.32847 C 458.59551,387.78464 461.07439,383.8774 463.66794,381.5781 M 462.64658,387.9857 C 461.4382,389.07398 460.21601,391.08324 458.97961,394.02341 C 457.75816,396.90506 456.77042,400.96089 456.02,406.19526 C 455.26598,411.45418 454.90625,417.65949 454.94342,424.80001 C 455.00354,436.33682 455.99093,445.34563 457.89414,451.77156 C 459.80602,458.12389 462.25368,459.66537 465.21474,456.46937 C 467.39559,454.11548 469.16167,449.9545 470.52297,444.0027 C 471.87343,438.09762 472.50798,429.76971 472.43468,418.99969 C 472.34316,405.55309 471.12967,396.06916 468.77569,390.48009 C 467.16954,386.59405 465.13144,385.74873 462.64658,387.9857 M 495.59349,353.27487 C 499.52627,349.7883 502.66135,351.0186 505.04127,356.85935 C 507.04145,361.80862 508.07823,368.62073 508.16634,377.34186 C 508.22819,383.48009 507.76191,390.24057 506.76191,397.65831 C 505.75461,405.12934 504.31238,411.52471 502.42452,416.84891 C 500.5337,422.21337 498.3786,426.23414 495.95098,428.89164 C 491.92359,433.30037 488.62303,432.48981 486.09422,426.33382 C 483.93646,421.09674 482.81356,413.81136 482.74159,404.52763 C 482.68925,397.77597 483.27348,390.47809 484.48701,382.674 C 485.71072,374.85969 487.32945,368.49107 489.33316,363.56314 C 491.31368,358.63962 493.40136,355.21827 495.59349,353.27487 M 494.74707,359.08372 C 493.72595,360.00337 492.69652,361.76538 491.65849,364.37811 C 490.63349,366.93687 489.81046,370.58451 489.19221,375.32489 C 488.5712,380.0857 488.2867,385.73763 488.34075,392.27148 C 488.42806,402.82664 489.29111,411.13743 490.92102,417.15705 C 492.55905,423.11381 494.63712,424.71247 497.13799,422.01316 C 498.98185,420.02301 500.46931,416.34302 501.60824,410.98766 C 502.73879,405.67097 503.25335,398.07582 503.15815,388.18645 C 503.03929,375.83723 501.97769,367.05013 499.95867,361.76676 C 498.58181,358.09777 496.84842,357.19202 494.74707,359.08372 M 519.08581,297.81724 C 519.08581,297.81724 520.06207,385.22118 520.06207,385.22118 C 520.10843,389.38037 520.23977,392.03182 520.45579,393.1722 C 520.68821,394.29373 521.02538,394.98318 521.46661,395.24132 C 521.90612,395.45055 522.71277,394.92021 523.88123,393.65727 C 523.88123,393.65727 523.91101,396.2452 523.91101,396.2452 C 523.91101,396.2452 512.48947,408.67908 512.48947,408.67908 C 512.48947,408.67908 512.46146,406.00041 512.46146,406.00041 C 513.56237,404.81048 514.30645,403.68195 514.69812,402.61123 C 515.08875,401.54319 515.38787,400.15271 515.59592,398.43958 C 515.80366,396.72941 515.88494,393.79228 515.84006,389.62886 C 515.84006,389.62886 515.18499,328.86241 515.18499,328.86241 C 515.10414,321.36231 514.99481,316.82016 514.85689,315.22805 C 514.7184,313.58708 514.50867,312.56427 514.22761,312.15922 C 513.96322,311.74022 513.62448,311.69815 513.21072,312.03446 C 512.76133,312.39973 512.19348,313.25382 511.50572,314.60061 C 511.50572,314.60061 511.03388,312.40057 511.03388,312.40057 C 511.03388,312.40057 517.95737,298.70327 517.95737,298.70327 C 517.95737,298.70327 519.08581,297.81724 519.08581,297.81724 M 539.39543,314.44273 C 539.39543,314.44273 539.67013,335.54718 539.67013,335.54718 C 539.67013,335.54718 538.93493,336.24784 538.93493,336.24784 C 538.28227,330.12269 537.49052,326.26618 536.55736,324.68267 C 535.63454,323.07757 534.47053,322.90197 533.05973,324.1704 C 531.97806,325.14291 531.11033,326.78795 530.4596,329.10872 C 529.80609,331.43962 529.49092,333.65591 529.51624,335.75052 C 529.54775,338.35821 529.82664,340.35791 530.35199,341.74566 C 530.86078,343.19099 531.86804,344.27174 533.36515,344.98577 C 533.36515,344.98577 536.76827,346.62995 536.76827,346.62995 C 539.86409,348.13837 541.43929,352.53549 541.53552,359.84876 C 541.60986,365.49859 540.96993,370.81476 539.60616,375.82863 C 538.24378,380.82788 536.67185,384.31498 534.88519,386.27082 C 533.5902,387.68842 532.08901,388.62095 530.37653,389.06376 C 529.84932,389.1607 529.41856,389.39002 529.08499,389.75229 C 528.71885,390.14994 528.43911,391.07619 528.24608,392.5321 C 528.24608,392.5321 527.45298,393.3979 527.45298,393.3979 C 527.45298,393.3979 527.17827,370.18554 527.17827,370.18554 C 527.17827,370.18554 527.97035,369.37669 527.97035,369.37669 C 528.49548,375.51061 529.40509,379.58379 530.69294,381.59236 C 531.9719,383.58707 533.36888,383.75601 534.87983,382.12125 C 535.93535,380.97925 536.77537,379.13737 537.40277,376.59856 C 538.04197,374.00919 538.3438,371.41521 538.31031,368.8098 C 538.26979,365.65735 537.8677,363.38937 537.10178,361.99997 C 536.34779,360.58931 534.84282,359.34788 532.56706,358.26927 C 530.26119,357.17653 528.72398,355.61707 527.976,353.59615 C 527.22571,351.61447 526.82524,348.57377 526.77685,344.48199 C 526.71406,339.1718 527.27712,334.17281 528.45895,329.50868 C 529.647,324.86801 531.19776,321.71028 533.10159,320.02246 C 533.93043,319.28766 534.93685,318.92647 536.11777,318.93553 C 536.89526,318.93117 537.41015,318.81483 537.66482,318.58701 C 537.90407,318.37296 538.08878,318.04762 538.21904,317.61112 C 538.34909,317.17509 538.49644,316.33558 538.66102,315.09381 C 538.66102,315.09381 539.39543,314.44273 539.39543,314.44273"
         style="font-size:56px;font-style:normal;font-variant:normal;font-weight:normal;font-stretch:normal;text-indent:0;text-align:start;text-decoration:none;line-height:100%;letter-spacing:normal;word-spacing:normal;text-transform:none;direction:ltr;block-progression:tb;writing-mode:lr-tb;text-anchor:start;fill:#000000;fill-opacity:1;fill-rule:nonzero;stroke:none;stroke-width:1.26840556;stroke-linecap:butt;stroke-linejoin:miter;marker:none;marker-start:none;marker-mid:none;marker-end:none;stroke-miterlimit:4;stroke-dashoffset:0;stroke-opacity:1;visibility:visible;display:inline;overflow:visible;enable-background:accumulate;font-family:Times New Roman" />
      <path
         style="opacity:1;fill:#fffcfc;fill-opacity:1;fill-rule:nonzero;stroke:#000000;stroke-width:1.26840556;stroke-linecap:butt;stroke-linejoin:miter;marker:none;marker-start:none;marker-mid:none;marker-end:none;stroke-miterlimit:4;stroke-dasharray:none;stroke-dashoffset:0;stroke-opacity:1;visibility:visible;display:inline;overflow:visible;enable-background:accumulate"
         d="M 239.11773,253.5748 L 394.6812,377.82356 L 549.2346,255.59511 L 393.6711,189.93519 L 239.11773,253.5748 z"
         id="path5084" />
      <path
         style="opacity:1;fill:#ffffff;fill-opacity:1;fill-rule:nonzero;stroke:#000000;stroke-width:1.26800001;stroke-linecap:butt;stroke-linejoin:miter;marker:none;marker-start:none;marker-mid:none;marker-end:none;stroke-miterlimit:4;stroke-dasharray:none;stroke-dashoffset:0;stroke-opacity:1;visibility:visible;display:inline;overflow:visible;enable-background:accumulate"
         d="M 239.11773,253.5748 L 394.6812,377.82357 L 513.52031,187.02368 L 352.24253,128.50662 L 239.11773,253.5748 z"
         id="path5087"
         sodipodi:nodetypes="ccccc" />
      <path
         sodipodi:nodetypes="ccc"
         id="path5359"
         d="M 398.10473,374.23652 L 486.31902,229.95081 L 548.10473,254.95081"
         style="opacity:1;fill:url(#linearGradient3366);fill-opacity:1;fill-rule:nonzero;stroke:none;stroke-width:1.26840556;stroke-linecap:butt;stroke-linejoin:miter;marker:none;marker-start:none;marker-mid:none;marker-end:none;stroke-miterlimit:4;stroke-dasharray:none;stroke-dashoffset:0;stroke-opacity:1;visibility:visible;display:inline;overflow:visible;enable-background:accumulate" />
      <path
         sodipodi:nodetypes="csssssssssccccczcssssssssssssssssssssssssszcczzczsssszzczzzzzcccczzzzzzzzsccssssssssszcszszzczssssssssszcccccssssssccssssscccsszzzzszczzsz"
         style="font-size:56.00000381px;font-style:normal;font-variant:normal;font-weight:normal;font-stretch:normal;text-indent:0;text-align:start;text-decoration:none;line-height:100%;letter-spacing:normal;word-spacing:normal;text-transform:none;direction:ltr;block-progression:tb;writing-mode:lr-tb;text-anchor:start;fill:#000000;fill-opacity:1;stroke:none;stroke-width:1.26840556;marker:none;marker-start:none;marker-mid:none;marker-end:none;visibility:visible;display:inline;overflow:visible;enable-background:accumulate;font-family:Apple LiGothic;-inkscape-font-specification:Apple LiGothic"
         d="M 457.35038,185.45708 C 456.26214,185.12767 454.71732,184.8228 452.24845,184.44125 C 444.87423,183.30158 437.79495,183.1263 430.4096,183.8321 C 425.94049,184.2592 422.90259,184.82888 417.28812,186.28284 C 411.69392,187.73157 409.00041,188.67138 406.50035,190.00768 C 405.04135,190.78751 404.90675,190.86676 404.34883,191.8288 C 403.62312,193.08012 403.57732,193.50924 404.08447,193.88129 C 404.57675,194.24237 405.86039,194.21164 408.34969,193.81075 C 413.37488,193.00146 414.96511,192.84615 417.70224,192.84897 C 422.78632,192.85419 430.95355,192.25879 434.79481,193.77519 C 437.21134,194.72916 443.7772,197.42879 445.12643,198.87889 C 445.12643,198.87889 384.6257,288.5671 384.6257,288.5671 C 384.6257,288.5671 372.71621,158.60717 372.71621,158.60717 C 372.71621,158.60717 358.78151,153.46866 358.78151,153.46866 C 337.59547,178.00964 316.64382,202.86214 295.36602,227.26304 C 294.83749,227.46001 294.05497,227.5099 293.41829,227.18308 C 292.7816,226.85626 292.30548,225.87106 291.6531,224.92194 C 291.04971,223.75473 290.95224,223.36481 290.00041,217.56892 C 289.54514,214.79672 289.23273,213.73326 288.01,210.74011 C 286.15727,206.20479 284.39708,202.29794 284.23436,202.34148 C 284.16322,202.36053 284.34173,203.07162 284.59927,203.9129 C 285.5749,207.09995 285.83196,207.92822 286.03759,208.45039 C 286.59109,209.85582 286.70471,210.10164 286.93982,210.85442 C 287.36614,212.21947 287.79888,214.54731 287.98756,216.53596 C 288.08705,217.58458 288.37003,219.28214 288.65304,220.30684 C 289.21193,222.33046 289.38678,225.76982 288.97514,227.08378 C 288.83696,227.52486 288.56875,228.39785 288.19525,228.91704 C 287.42513,229.98756 285.2833,232.39339 285.14547,232.50329 C 284.82337,232.76013 284.26896,232.90879 284.11712,232.99384 C 283.55883,233.30656 279.53484,234.03521 278.62385,233.93128 C 277.81575,233.83908 276.50641,231.9512 276.42598,231.862 C 276.04583,231.44045 273.29596,227.60894 271.59878,225.41293 C 269.90161,223.21691 264.03965,219.81822 264.00975,219.71363 C 263.99481,219.66137 271.62137,226.34945 272.31852,229.37792 C 272.6671,230.89216 274.57765,234.21162 275.10783,236.24417 C 275.63802,238.27672 274.3799,240.41223 274.16064,240.75541 C 273.84952,241.24237 272.34217,242.64441 272.16411,242.82999 C 271.62037,243.39669 268.69144,245.24681 266.46833,246.10361 C 264.72564,246.77525 264.39704,246.83432 263.71846,246.63673 C 258.71371,245.17942 253.4239,244.57572 248.33368,244.86818 C 245.95629,245.00477 238.01117,245.96608 237.99927,246.12369 C 237.98867,246.26381 243.65397,246.11299 246.90587,245.87332 C 247.99584,245.79298 248.79447,245.84168 249.00928,245.82248 C 249.22409,245.80328 250.00802,245.80228 250.5342,245.81511 C 251.62951,245.89787 251.95101,246.00671 252.95898,246.71799 C 253.83044,247.19616 254.02448,247.95176 254.31558,248.36987 C 254.60668,248.78798 255.26702,250.91853 255.12391,251.2924 C 254.9808,251.66628 254.66455,251.94885 254.28979,252.35992 C 253.86914,252.60057 253.69155,252.75502 253.44188,252.89054 C 253.2042,253.01957 250.75952,254.25253 249.15819,254.91745 C 248.47196,255.20237 246.98127,255.68919 245.88494,255.98911 C 243.11357,256.74727 233.86837,259.65889 233.72497,259.81588 C 233.45297,260.11379 233.92457,260.09059 236.39777,259.69415 C 239.85427,259.14007 253.08401,255.742 253.98857,255.48132 C 254.88426,255.2232 260.54778,253.77414 261.00592,253.73687 C 261.49541,253.69705 262.35828,253.56814 262.95302,253.55221 C 263.83013,253.60017 264.47403,253.69826 265.40719,254.38709 C 266.32503,255.06463 267.39311,255.96678 267.90613,257.25948 C 268.42357,258.56328 268.471,259.31381 268.48723,259.90766 C 268.50347,260.5015 268.45541,260.96173 268.34095,261.55071 C 268.22549,262.14481 267.46058,264.46592 266.98628,265.6927 C 266.50524,266.93691 266.06648,267.96377 265.77588,268.81306 C 265.77588,268.81306 265.2398,270.33281 265.2398,270.33281 C 265.2398,270.33281 261.00055,275.52965 261.00055,275.52965 C 258.548,278.15343 256.4912,280.83124 254.93826,283.99356 C 254.46758,284.93782 252.96288,287.87785 253.34255,288.0594 C 253.73785,288.24843 256.97045,285.2005 258.00568,283.81402 C 259.04091,282.42753 260.07815,280.53514 260.9344,279.50309 C 261.8124,278.44484 265.51767,273.6942 266.85251,272.43244 C 268.18527,271.17265 269.25454,270.16308 269.84827,269.81129 C 270.46065,269.44845 271.45799,268.82529 272.21811,268.44052 C 272.99539,268.04706 274.18655,267.38834 276.0884,267.0526 C 277.98211,266.71829 280.73635,267.41094 281.64128,268.49246 C 282.56432,269.59563 282.58539,269.40992 283.34513,271.50608 C 284.53582,274.79127 284.86555,276.28 284.85438,278.58084 C 284.88698,281.07577 284.25898,283.49058 283.95893,285.95069 C 282.32289,296.77539 282.15509,300.26192 283.0426,305.62985 C 283.47219,308.22822 284.74596,312.5855 285.07567,312.51254 C 285.48407,312.42209 284.96997,308.53939 284.1736,305.78518 C 283.54946,303.62667 283.27126,302.11469 283.279,300.63508 C 283.28928,298.66637 283.74097,294.51193 284.026,293.64803 C 284.0966,293.43404 284.29567,292.66731 284.4651,291.90842 C 284.6341,291.15147 285.04698,289.56946 285.3738,288.41211 C 285.69937,287.2592 286.33518,284.37269 286.78374,282.00414 C 287.99983,275.58282 288.06152,275.35387 289.29256,273.67368 C 290.00817,272.69697 290.40054,272.41028 291.13959,271.88049 C 291.87864,271.3507 293.20997,270.97994 294.99252,270.89825 C 296.23933,271.00117 296.82547,271.26874 297.61494,271.69879 C 298.14969,271.99009 298.40505,272.16172 298.71806,272.38388 C 299.04125,272.61326 304.36312,276.01366 307.51477,278.5579 C 311.02443,281.39134 319.05202,286.26699 319.71158,286.6148 C 320.36235,286.95797 321.1878,287.2738 321.18352,286.98142 C 321.17957,286.71136 320.16608,285.76947 318.85068,284.78583 C 317.45752,283.8169 316.28097,282.7749 314.86928,281.66165 C 313.44379,280.53751 309.46242,277.10245 308.14218,275.16164 C 306.78414,273.16525 305.99165,268.67914 305.45607,266.73377 C 305.2358,265.93372 305.16939,265.44851 305.0999,263.59756 C 305.08799,263.28019 306.48224,261.07165 308.84958,260.44038 C 311.21692,259.80912 314.37878,259.05869 317.54495,258.26469 C 320.71111,257.47069 323.88159,256.63311 326.26615,255.82753 C 328.65072,255.02196 330.24938,254.24839 330.27191,253.58241 C 330.29444,252.91643 316.19621,255.78438 314.10106,255.60447 C 312.22838,255.44366 311.37813,255.76822 309.05585,255.05366 C 306.73357,254.33911 309.46977,256.70437 305.45079,250.74287 C 301.30209,244.58896 304.91711,235.36417 304.52405,238.2522 C 304.52405,238.2522 359.02892,172.07437 359.02892,172.07437 C 359.02892,172.07437 369.01523,318.71003 369.01523,318.71003 C 369.01523,318.71003 380.67097,329.78774 380.67097,329.78774 C 380.67097,329.78774 461.18634,207.47343 461.18634,207.47343 C 461.97344,207.61031 462.93871,207.95332 465.42562,208.93245 C 467.57999,209.781 472.02352,211.59558 475.26779,212.9811 C 483.32147,216.42108 481.36976,215.72955 484.78148,211.0638 C 485.93174,209.49087 486.85311,208.11429 486.83332,207.99564 C 486.81362,207.87691 487.57856,206.32285 488.52938,204.55789 C 490.51422,200.87314 490.56584,200.57255 488.87292,199.35245 C 486.76783,197.83537 481.94476,195.98591 477.20943,194.67487 C 473.0544,193.29528 468.80597,192.04945 464.80317,190.34866 C 464.08178,190.20191 461.44543,188.37437 461.60646,188.1359 C 461.66462,188.04975 461.58196,188.00638 461.41975,188.01845 C 461.25749,188.03065 461.21733,187.92456 461.28704,187.82143 C 461.35691,187.71807 461.26927,187.65373 461.1276,187.66434 C 460.98595,187.67495 460.39381,187.24762 459.77493,186.72846 C 459.08387,186.14861 458.44235,185.78735 457.35051,185.45689 C 457.35051,185.45689 457.35038,185.45708 457.35038,185.45708 M 290.44394,244.3668 C 291.42332,244.98342 292.02688,246.23434 292.42812,247.04355 C 293.33696,248.8763 293.31388,251.08554 292.33185,252.26204 C 291.83081,252.86229 290.93455,253.47146 290.5886,253.60616 C 290.22802,253.74656 289.37,254.03743 288.88765,254.22079 C 288.41657,254.39986 287.49793,254.66727 287.03657,254.67148 C 286.57521,254.67569 285.97383,254.62859 285.40048,254.54999 C 284.83222,254.47208 281.92631,252.547 281.61301,252.13328 C 281.00826,251.33459 280.4389,250.22842 280.38968,249.53539 C 280.34047,248.84236 280.40313,248.09744 280.64033,247.10028 C 280.99025,246.17762 282.36562,244.47108 282.70455,244.14829 C 283.06037,243.80941 283.88107,243.56935 284.15292,243.4162 C 284.42477,243.26304 285.85979,242.99375 287.25677,243.11403 C 288.65374,243.23431 289.46455,243.75018 290.44394,244.3668 z"
         id="path3311" />
    </g>
    <path
       sodipodi:nodetypes="ccccc"
       id="path3336"
       d="M 427.93891,765.13854 L 623.43051,765.01211 L 623.68233,555.84842 L 428.33795,556.43595 L 427.93891,765.13854 z"
       style="fill:none;fill-opacity:1;fill-rule:nonzero;stroke:#000000;stroke-width:0.95759481;stroke-linecap:butt;stroke-linejoin:miter;marker:none;marker-start:none;marker-mid:none;marker-end:none;stroke-miterlimit:4;stroke-dasharray:none;stroke-dashoffset:0;stroke-opacity:1;visibility:visible;display:inline;overflow:visible;enable-background:accumulate" />
    <path
       id="path3338"
       d="M 571.64014,579.53267 C 570.56551,579.65987 569.13548,579.99395 566.91203,580.62754 C 560.27083,582.51999 554.43414,585.20342 548.86628,588.84109 C 545.497,591.04235 543.37055,592.80218 539.67582,596.43294 C 535.99444,600.0506 534.36401,602.02097 533.1228,604.28748 C 532.39844,605.61017 532.3359,605.73908 532.44824,606.87104 C 532.59434,608.34338 532.80892,608.76658 533.43789,608.91343 C 534.04839,609.05593 535.07005,608.51039 536.85115,607.13054 C 540.44669,604.345 541.64362,603.55858 543.86222,602.4598 C 547.98316,600.41885 554.24905,596.57068 558.24965,596.45528 C 560.76643,596.38268 569.4377,596.28695 571.38099,597.11182 C 571.38099,597.11182 570.99727,693.57842 570.99727,693.57842 C 570.99727,693.57842 483.8032,588.26391 483.8032,588.26391 C 483.8032,588.26391 465.96319,587.69701 465.96319,587.69701 C 465.85143,620.69817 465.22725,646.57143 464.959,678.14996 C 464.64644,678.54844 464.04189,678.91039 463.33453,678.85832 C 462.62716,678.80626 461.66371,678.06856 460.57866,677.43583 C 459.40539,676.57766 459.09775,676.24909 454.92757,671.16514 C 452.93295,668.73346 452.0562,667.85607 449.31038,665.52481 C 445.14983,661.99242 441.43281,659.01559 441.32655,659.12214 C 441.28011,659.16873 441.84174,659.76764 442.54374,660.45754 C 445.20314,663.07113 445.89712,663.74895 446.36992,664.15874 C 447.6425,665.26168 447.8787,665.44783 448.51063,666.06328 C 449.65652,667.17931 451.37228,669.20091 452.69143,671.00078 C 453.38702,671.94986 454.61183,673.43721 455.44203,674.28987 C 457.08154,675.97375 459.24032,679.14757 459.67754,680.55262 C 459.82431,681.02427 460.11907,681.95565 460.12106,682.59567 C 460.12515,683.91535 459.80136,687.04654 459.75418,687.20566 C 459.64393,687.57754 459.28207,687.94087 459.20897,688.08219 C 458.94019,688.60183 456.10828,690.90841 455.30947,691.17697 C 454.60087,691.41519 452.43314,690.16133 452.31568,690.10956 C 451.76054,689.86491 447.28612,687.3574 444.62353,685.96897 C 441.96095,684.58052 435.21973,683.7336 435.13418,683.64698 C 435.09142,683.60369 445.19109,686.84325 447.53193,689.41932 C 448.70235,690.70736 452.19665,693.06962 453.81814,694.77348 C 455.43965,696.47733 455.67309,698.99793 455.69677,699.40987 C 455.73038,699.99439 455.33178,701.92344 455.2964,702.17014 C 455.18836,702.92348 453.90114,705.84723 452.60303,707.55001 C 451.58545,708.8848 451.35394,709.07275 450.68843,709.15944 C 445.78011,709.79878 441.14154,711.358 437.19022,713.68221 C 435.34475,714.76773 429.47336,718.87166 429.55616,719.02512 C 429.62975,719.16155 434.12993,716.73953 436.62326,715.20487 C 437.45897,714.69048 438.13439,714.41504 438.29711,714.31049 C 438.45984,714.20594 439.0942,713.88953 439.52791,713.6899 C 440.4636,713.3272 440.78783,713.30049 442.0214,713.56579 C 443.00769,713.66614 443.608,714.30078 444.089,714.57802 C 444.57,714.85526 446.35439,716.59918 446.45775,717.00942 C 446.56112,717.41967 446.47069,717.81347 446.40824,718.35202 C 446.20868,718.74828 446.15542,718.96543 446.03268,719.19373 C 445.91585,719.41108 444.65889,721.55783 443.75185,722.82941 C 443.36314,723.3743 442.44126,724.43336 441.72919,725.15743 C 439.92916,726.98775 434.14861,733.45456 434.12453,733.66026 C 434.07895,734.05076 434.44732,733.83906 436.21799,732.46996 C 438.69263,730.55636 447.41518,722.02738 447.99495,721.41749 C 448.56903,720.81359 452.30636,717.16772 452.65558,716.9482 C 453.02869,716.71367 453.65197,716.24485 454.12434,715.99049 C 454.86289,715.68278 455.44194,715.51619 456.60175,715.79042 C 457.74253,716.06017 459.13673,716.48132 460.31041,717.49421 C 461.49418,718.5158 461.97278,719.20466 462.33421,719.75827 C 462.69565,720.31188 462.92664,720.76533 463.17937,721.36695 C 463.43429,721.9738 464.17606,724.47099 464.51139,725.81905 C 464.85149,727.18615 465.09836,728.33136 465.36109,729.24936 C 465.36109,729.24936 465.81821,730.89856 465.81821,730.89856 C 465.81821,730.89856 465.43252,737.50646 465.43252,737.50646 C 464.9849,740.96826 464.8895,744.32176 465.48636,747.92956 C 465.65893,749.00966 466.1645,752.38836 466.57849,752.40676 C 467.00953,752.42606 467.84021,748.25026 467.86553,746.52586 C 467.89086,744.80146 467.6211,742.59906 467.70934,741.28096 C 467.79982,739.92946 468.0147,733.95746 468.35585,732.23016 C 468.69647,730.50546 468.97042,729.12296 469.245,728.55216 C 469.52819,727.96355 469.97052,726.97435 470.36051,726.30555 C 470.75931,725.62165 471.33777,724.52098 472.68127,723.43898 C 474.01902,722.3616 476.65606,721.90661 478.02332,722.56261 C 479.41794,723.23173 479.32609,723.04808 481.17082,724.71956 C 484.06197,727.33915 485.20216,728.61076 486.54254,730.78556 C 488.0322,733.12576 488.93982,735.65626 490.13963,738.09746 C 495.16311,748.96626 497.07202,752.32246 500.93912,757.02866 C 502.81099,759.30666 506.3982,762.90416 506.62246,762.70266 C 506.90019,762.45296 504.20662,758.99746 501.94628,756.72006 C 500.1748,754.93516 499.06271,753.62096 498.2012,752.22216 C 497.05489,750.36106 494.98419,746.26056 494.70838,745.33096 C 494.64006,745.10076 494.35162,744.29746 494.04376,743.51346 C 493.7367,742.73146 493.14328,741.07306 492.72921,739.84986 C 492.31674,738.63136 491.1388,735.65276 490.11297,733.23816 C 487.3319,726.69185 487.24759,726.45105 487.25925,724.37086 C 487.26603,723.16161 487.41569,722.7333 487.70357,721.93617 C 487.99145,721.13905 488.85232,720.25359 490.2482,719.45923 C 491.31842,719.05458 491.95009,719.0711 492.84175,719.15905 C 493.44572,719.21864 493.75321,719.27777 494.13703,719.36136 C 494.53332,719.44767 500.83811,720.51354 504.88298,721.64515 C 509.38743,722.90548 518.74895,724.27408 519.48715,724.33674 C 520.21551,724.39856 521.06932,724.3643 520.89438,724.09023 C 520.73279,723.83709 519.3595,723.35649 517.71719,722.95799 C 516.02052,722.60467 514.45644,722.09525 512.66012,721.61325 C 510.84624,721.12654 505.60688,719.48854 503.39927,718.18915 C 501.12845,716.85254 497.8555,712.93991 496.28076,711.32046 C 495.63313,710.65445 495.29477,710.2235 494.15292,708.50555 C 493.95714,708.21099 493.79112,705.56672 495.33833,704.01864 C 496.88554,702.47057 499.00638,700.49037 501.10516,698.46733 C 503.20393,696.4443 505.28064,694.37843 506.73956,692.659 C 508.19849,690.93957 509.03964,689.56659 508.6673,688.92934 C 508.29496,688.29209 498.55806,696.67052 496.75557,697.34392 C 495.14447,697.94582 494.64615,698.59411 492.34613,698.8546 C 490.04611,699.11511 493.64951,700.24507 486.89795,696.23915 C 479.92847,692.10394 477.4462,681.94793 478.82165,684.83024 C 478.82165,684.83024 479.73056,609.12961 479.73056,609.12961 C 479.73056,609.12961 573.37723,726.08015 573.37723,726.08015 C 573.37723,726.08015 587.54493,726.52915 587.54493,726.52915 C 587.54493,726.52915 587.65951,598.756 587.65951,598.756 C 588.3773,598.56838 589.3603,598.50349 591.94884,598.4263 C 594.19145,598.35976 598.85474,598.28326 602.29505,598.28463 C 610.83569,598.28853 608.84932,598.42163 608.87623,592.64775 C 608.88538,590.70121 608.82429,589.03198 608.73868,588.92803 C 608.65309,588.82397 608.36121,587.05028 608.09619,585.00286 C 607.54275,580.7285 607.40826,580.4242 605.3215,579.95458 C 602.72671,579.3707 597.73555,579.56703 593.13123,580.23593 C 588.95673,580.60664 584.78502,581.14111 580.54543,581.1476 C 579.87507,581.29947 576.66791,580.63653 576.65848,580.34679 C 576.65506,580.24213 576.56267,580.23448 576.43836,580.31114 C 576.3141,580.38794 576.21935,580.30403 576.21533,580.1787 C 576.2113,580.05309 576.10258,580.02767 575.99405,580.09469 C 575.88555,580.1617 575.15531,579.9969 574.34957,579.75624 C 573.44976,579.48739 572.71828,579.40478 571.64013,579.53244 C 571.64013,579.53244 571.64014,579.53267 571.64014,579.53267 M 471.00356,696.26379 C 472.15846,696.45131 473.38097,697.38836 474.18055,697.99019 C 475.99156,699.35321 477.26857,701.44636 477.16318,702.95127 C 477.1094,703.71908 476.74075,704.65434 476.53954,704.92061 C 476.32983,705.19815 475.80547,705.81778 475.52233,706.18484 C 475.24579,706.54331 474.65857,707.16522 474.28736,707.35484 C 473.91615,707.54447 473.40143,707.74204 472.89095,707.89862 C 472.38499,708.05381 468.90229,707.40733 468.40589,707.14317 C 467.44764,706.63316 466.33773,705.81887 465.8914,705.18498 C 465.44509,704.55108 465.05895,703.82322 464.66624,702.7872 C 464.40853,701.77609 464.52165,699.61293 464.60685,699.17207 C 464.6963,698.70924 465.22023,698.15254 465.3506,697.89869 C 465.48096,697.64483 466.48532,696.81336 467.68736,696.36465 C 468.88938,695.91596 469.84866,696.07628 471.00356,696.26379 z"
       style="font-size:56.00000381px;font-style:normal;font-variant:normal;font-weight:normal;font-stretch:normal;text-indent:0;text-align:start;text-decoration:none;line-height:100%;letter-spacing:normal;word-spacing:normal;text-transform:none;direction:ltr;block-progression:tb;writing-mode:lr-tb;text-anchor:start;fill:#000000;fill-opacity:1;stroke:none;stroke-width:1.26840556;marker:none;marker-start:none;marker-mid:none;marker-end:none;visibility:visible;display:inline;overflow:visible;enable-background:accumulate;font-family:Apple LiGothic;-inkscape-font-specification:Apple LiGothic"
       sodipodi:nodetypes="csssssssssccccczcssssssssssssssssssssssssszcczzczsssszzczzzzzcccczzzzzzzzsccssssssssszcszszzczssssssssszcccccssssssccssssscccsszzzzszczzsz" />
    <path
       id="path3340"
       d="M 192.28271,842.9597 C 191.20808,843.0869 189.77805,843.42098 187.5546,844.05457 C 180.9134,845.94702 175.07671,848.63045 169.50885,852.26812 C 166.13957,854.46938 164.01312,856.22921 160.31839,859.85997 C 156.63701,863.47763 155.00658,865.448 153.76537,867.71451 C 153.04101,869.0372 152.97847,869.16611 153.09081,870.29807 C 153.23691,871.77041 153.45149,872.19361 154.08046,872.34046 C 154.69096,872.48296 155.71262,871.93742 157.49372,870.55757 C 161.08926,867.77203 162.28619,866.98561 164.50479,865.88683 C 168.62573,863.84588 174.89162,859.99771 178.89222,859.88231 C 181.409,859.80971 190.08027,859.71398 192.02356,860.53885 C 192.02356,860.53885 191.63984,957.00545 191.63984,957.00545 C 191.63984,957.00545 104.44577,851.69094 104.44577,851.69094 C 104.44577,851.69094 86.605757,851.12404 86.605757,851.12404 C 86.493997,884.1252 85.869817,909.99846 85.601567,941.57699 C 85.289007,941.97547 84.684457,942.33742 83.977097,942.28535 C 83.269727,942.23329 82.306277,941.49559 81.221227,940.86286 C 80.047957,940.00469 79.740317,939.67612 75.570137,934.59217 C 73.575517,932.16049 72.698767,931.2831 69.952947,928.95184 C 65.792397,925.41945 62.075377,922.44262 61.969117,922.54917 C 61.922677,922.59576 62.484307,923.19467 63.186307,923.88457 C 65.845707,926.49816 66.539687,927.17598 67.012487,927.58577 C 68.285067,928.68871 68.521267,928.87486 69.153197,929.49031 C 70.299087,930.60634 72.014847,932.62794 73.333997,934.42781 C 74.029587,935.37689 75.254397,936.86424 76.084597,937.7169 C 77.724107,939.40078 79.882887,942.5746 80.320107,943.97965 C 80.466877,944.4513 80.761637,945.38268 80.763627,946.0227 C 80.767717,947.34238 80.443927,950.47357 80.396747,950.63269 C 80.286497,951.00457 79.924637,951.3679 79.851537,951.50922 C 79.582757,952.02886 76.750847,954.33544 75.952037,954.604 C 75.243437,954.84222 73.075707,953.58836 72.958247,953.53659 C 72.403107,953.29194 67.928687,950.78443 65.266097,949.396 C 62.603517,948.00755 55.862297,947.16063 55.776747,947.07401 C 55.733987,947.03072 65.833657,950.27028 68.174497,952.84635 C 69.344917,954.13439 72.839217,956.49665 74.460707,958.20051 C 76.082217,959.90436 76.315657,962.42496 76.339337,962.8369 C 76.372947,963.42142 75.974347,965.35047 75.938967,965.59717 C 75.830927,966.35051 74.543707,969.27426 73.245597,970.97704 C 72.228017,972.31183 71.996507,972.49978 71.330997,972.58647 C 66.422677,973.22581 61.784107,974.78503 57.832787,977.10924 C 55.987317,978.19476 50.115927,982.29869 50.198727,982.45215 C 50.272317,982.58858 54.772497,980.16656 57.265827,978.6319 C 58.101537,978.11751 58.776957,977.84207 58.939677,977.73752 C 59.102407,977.63297 59.736767,977.31656 60.170477,977.11693 C 61.106167,976.75423 61.430397,976.72752 62.663967,976.99282 C 63.650257,977.09317 64.250567,977.72781 64.731567,978.00505 C 65.212567,978.28229 66.996957,980.02621 67.100317,980.43645 C 67.203687,980.8467 67.113257,981.2405 67.050807,981.77905 C 66.851247,982.17531 66.797987,982.39246 66.675247,982.62076 C 66.558417,982.83811 65.301457,984.98486 64.394417,986.25644 C 64.005707,986.80133 63.083827,987.86039 62.371757,988.58446 C 60.571727,990.41478 54.791177,996.88159 54.767097,997.08729 C 54.721517,997.47779 55.089887,997.26609 56.860557,995.89699 C 59.335197,993.98339 68.057747,985.45441 68.637517,984.84452 C 69.211597,984.24062 72.948927,980.59475 73.298147,980.37523 C 73.671257,980.1407 74.294537,979.67188 74.766907,979.41752 C 75.505457,979.10981 76.084507,978.94322 77.244317,979.21745 C 78.385097,979.4872 79.779297,979.90835 80.952977,980.92124 C 82.136747,981.94283 82.615347,982.63169 82.976777,983.1853 C 83.338217,983.73891 83.569207,984.19236 83.821937,984.79398 C 84.076857,985.40083 84.818627,987.89802 85.153957,989.24608 C 85.494057,990.61318 85.740927,991.75839 86.003657,992.67639 C 86.003657,992.67639 86.460777,994.32559 86.460777,994.32559 C 86.460777,994.32559 86.075087,1000.9335 86.075087,1000.9335 C 85.627467,1004.3953 85.532067,1007.7488 86.128927,1011.3566 C 86.301497,1012.4367 86.807067,1015.8154 87.221057,1015.8338 C 87.652097,1015.8531 88.482777,1011.6773 88.508097,1009.9529 C 88.533427,1008.2285 88.263667,1006.0261 88.351907,1004.708 C 88.442387,1003.3565 88.657267,997.38449 88.998417,995.65719 C 89.339037,993.93249 89.612987,992.54999 89.887567,991.97919 C 90.170757,991.39058 90.613087,990.40138 91.003077,989.73258 C 91.401877,989.04868 91.980337,987.94801 93.323837,986.86601 C 94.661587,985.78863 97.298627,985.33364 98.665887,985.98964 C 100.06051,986.65876 99.968657,986.47511 101.81339,988.14659 C 104.70454,990.76618 105.84473,992.03779 107.18511,994.21259 C 108.67477,996.55279 109.58239,999.08329 110.7822,1001.5245 C 115.80568,1012.3933 117.71459,1015.7495 121.58169,1020.4557 C 123.45356,1022.7337 127.04077,1026.3312 127.26503,1026.1297 C 127.54276,1025.88 124.84919,1022.4245 122.58885,1020.1471 C 120.81737,1018.3622 119.70528,1017.048 118.84377,1015.6492 C 117.69746,1013.7881 115.62676,1009.6876 115.35095,1008.758 C 115.28263,1008.5278 114.99419,1007.7245 114.68633,1006.9405 C 114.37927,1006.1585 113.78585,1004.5001 113.37178,1003.2769 C 112.95931,1002.0584 111.78137,999.07979 110.75554,996.66519 C 107.97447,990.11888 107.89016,989.87808 107.90182,987.79789 C 107.9086,986.58864 108.05826,986.16033 108.34614,985.3632 C 108.63402,984.56608 109.49489,983.68062 110.89077,982.88626 C 111.96099,982.48161 112.59266,982.49813 113.48432,982.58608 C 114.08829,982.64567 114.39578,982.7048 114.7796,982.78839 C 115.17589,982.8747 121.48068,983.94057 125.52555,985.07218 C 130.03,986.33251 139.39152,987.70111 140.12972,987.76377 C 140.85808,987.82559 141.71189,987.79133 141.53695,987.51726 C 141.37536,987.26412 140.00207,986.78352 138.35976,986.38502 C 136.66309,986.0317 135.09901,985.52228 133.30269,985.04028 C 131.48881,984.55357 126.24945,982.91557 124.04184,981.61618 C 121.77102,980.27957 118.49807,976.36694 116.92333,974.74749 C 116.2757,974.08148 115.93734,973.65053 114.79549,971.93258 C 114.59971,971.63802 114.43369,968.99375 115.9809,967.44567 C 117.52811,965.8976 119.64895,963.9174 121.74773,961.89436 C 123.8465,959.87133 125.92321,957.80546 127.38213,956.08603 C 128.84106,954.3666 129.68221,952.99362 129.30987,952.35637 C 128.93753,951.71912 119.20063,960.09755 117.39814,960.77095 C 115.78704,961.37285 115.28872,962.02114 112.9887,962.28163 C 110.68868,962.54214 114.29208,963.6721 107.54052,959.66618 C 100.57104,955.53097 98.088767,945.37496 99.464217,948.25727 C 99.464217,948.25727 100.37313,872.55664 100.37313,872.55664 C 100.37313,872.55664 194.0198,989.50718 194.0198,989.50718 C 194.0198,989.50718 208.1875,989.95618 208.1875,989.95618 C 208.1875,989.95618 208.30208,862.18303 208.30208,862.18303 C 209.01987,861.99541 210.00287,861.93052 212.59141,861.85333 C 214.83402,861.78679 219.49731,861.71029 222.93762,861.71166 C 231.47826,861.71556 229.49189,861.84866 229.5188,856.07478 C 229.52795,854.12824 229.46686,852.45901 229.38125,852.35506 C 229.29566,852.251 229.00378,850.47731 228.73876,848.42989 C 228.18532,844.15553 228.05083,843.85123 225.96407,843.38161 C 223.36928,842.79773 218.37812,842.99406 213.7738,843.66296 C 209.5993,844.03367 205.42759,844.56814 201.188,844.57463 C 200.51764,844.7265 197.31048,844.06356 197.30105,843.77382 C 197.29763,843.66916 197.20524,843.66151 197.08093,843.73817 C 196.95667,843.81497 196.86192,843.73106 196.8579,843.60573 C 196.85387,843.48012 196.74515,843.4547 196.63662,843.52172 C 196.52812,843.58873 195.79788,843.42393 194.99214,843.18327 C 194.09233,842.91442 193.36085,842.83181 192.2827,842.95947 C 192.2827,842.95947 192.28271,842.9597 192.28271,842.9597 M 91.646127,959.69082 C 92.801027,959.87834 94.023537,960.81539 94.823117,961.41722 C 96.634127,962.78024 97.911137,964.87339 97.805747,966.3783 C 97.751967,967.14611 97.383317,968.08137 97.182107,968.34764 C 96.972397,968.62518 96.448037,969.24481 96.164897,969.61187 C 95.888357,969.97034 95.301137,970.59225 94.929927,970.78187 C 94.558717,970.9715 94.043997,971.16907 93.533517,971.32565 C 93.027557,971.48084 89.544857,970.83436 89.048457,970.5702 C 88.090207,970.06019 86.980297,969.2459 86.533967,968.61201 C 86.087657,967.97811 85.701517,967.25025 85.308807,966.21423 C 85.051097,965.20312 85.164217,963.03996 85.249417,962.5991 C 85.338867,962.13627 85.862797,961.57957 85.993167,961.32572 C 86.123527,961.07186 87.127887,960.24039 88.329927,959.79168 C 89.531947,959.34299 90.491227,959.50331 91.646127,959.69082 z"
       style="font-size:56.00000381px;font-style:normal;font-variant:normal;font-weight:normal;font-stretch:normal;text-indent:0;text-align:start;text-decoration:none;line-height:100%;letter-spacing:normal;word-spacing:normal;text-transform:none;direction:ltr;block-progression:tb;writing-mode:lr-tb;text-anchor:start;fill:#000000;fill-opacity:1;stroke:none;stroke-width:1.26840556;marker:none;marker-start:none;marker-mid:none;marker-end:none;visibility:visible;display:inline;overflow:visible;enable-background:accumulate;font-family:Apple LiGothic;-inkscape-font-specification:Apple LiGothic"
       sodipodi:nodetypes="csssssssssccccczcssssssssssssssssssssssssszcczzczsssszzczzzzzcccczzzzzzzzsccssssssssszcszszzczssssssssszcccccssssssccssssscccsszzzzszczzsz" />
    <path
       sodipodi:nodetypes="ccccc"
       id="path3342"
       d="M 426.06474,1028.7931 L 621.55634,1028.6667 L 621.80816,819.50303 L 426.46378,820.09056 L 426.06474,1028.7931 z"
       style="fill:#000000;fill-opacity:1;fill-rule:nonzero;stroke:#000000;stroke-width:0.95759481000000002;stroke-linecap:butt;stroke-linejoin:miter;marker:none;marker-start:none;marker-mid:none;marker-end:none;stroke-miterlimit:4;stroke-dasharray:none;stroke-dashoffset:0;stroke-opacity:1;visibility:visible;display:inline;overflow:visible;enable-background:accumulate" />
    <path
       id="path3344"
       d="M 569.76597,843.18728 C 568.69134,843.31448 567.26131,843.64856 565.03786,844.28215 C 558.39666,846.1746 552.55997,848.85803 546.99211,852.4957 C 543.62283,854.69696 541.49638,856.45679 537.80165,860.08755 C 534.12027,863.70521 532.48984,865.67558 531.24863,867.94209 C 530.52427,869.26478 530.46173,869.39369 530.57407,870.52565 C 530.72017,871.99799 530.93475,872.42119 531.56372,872.56804 C 532.17422,872.71054 533.19588,872.165 534.97698,870.78515 C 538.57252,867.99961 539.76945,867.21319 541.98805,866.11441 C 546.10899,864.07346 552.37488,860.22529 556.37548,860.10989 C 558.89226,860.03729 567.56353,859.94156 569.50682,860.76643 C 569.50682,860.76643 569.1231,957.23303 569.1231,957.23303 C 569.1231,957.23303 481.92903,851.91852 481.92903,851.91852 C 481.92903,851.91852 464.08902,851.35162 464.08902,851.35162 C 463.97726,884.35278 463.35308,910.22604 463.08483,941.80457 C 462.77227,942.20305 462.16772,942.565 461.46036,942.51293 C 460.75299,942.46087 459.78954,941.72317 458.70449,941.09044 C 457.53122,940.23227 457.22358,939.9037 453.0534,934.81975 C 451.05878,932.38807 450.18203,931.51068 447.43621,929.17942 C 443.27566,925.64703 439.55864,922.6702 439.45238,922.77675 C 439.40594,922.82334 439.96757,923.42225 440.66957,924.11215 C 443.32897,926.72574 444.02295,927.40356 444.49575,927.81335 C 445.76833,928.91629 446.00453,929.10244 446.63646,929.71789 C 447.78235,930.83392 449.49811,932.85552 450.81726,934.65539 C 451.51285,935.60447 452.73766,937.09182 453.56786,937.94448 C 455.20737,939.62836 457.36615,942.80218 457.80337,944.20723 C 457.95014,944.67888 458.2449,945.61026 458.24689,946.25028 C 458.25098,947.56996 457.92719,950.70115 457.88001,950.86027 C 457.76976,951.23215 457.4079,951.59548 457.3348,951.7368 C 457.06602,952.25644 454.23411,954.56302 453.4353,954.83158 C 452.7267,955.0698 450.55897,953.81594 450.44151,953.76417 C 449.88637,953.51952 445.41195,951.01201 442.74936,949.62358 C 440.08678,948.23513 433.34556,947.38821 433.26001,947.30159 C 433.21725,947.2583 443.31692,950.49786 445.65776,953.07393 C 446.82818,954.36197 450.32248,956.72423 451.94397,958.42809 C 453.56548,960.13194 453.79892,962.65254 453.8226,963.06448 C 453.85621,963.649 453.45761,965.57805 453.42223,965.82475 C 453.31419,966.57809 452.02697,969.50184 450.72886,971.20462 C 449.71128,972.53941 449.47977,972.72736 448.81426,972.81405 C 443.90594,973.45339 439.26737,975.01261 435.31605,977.33682 C 433.47058,978.42234 427.59919,982.52632 427.68199,982.67972 C 427.75558,982.81612 432.25576,980.39414 434.74909,978.85948 C 435.5848,978.34509 436.26022,978.06965 436.42294,977.9651 C 436.58567,977.86055 437.22003,977.54414 437.65374,977.34451 C 438.58943,976.98181 438.91366,976.9551 440.14723,977.2204 C 441.13352,977.32075 441.73383,977.95539 442.21483,978.23263 C 442.69583,978.50987 444.48022,980.25379 444.58358,980.66403 C 444.68695,981.07428 444.59652,981.46808 444.53407,982.00663 C 444.33451,982.40292 444.28125,982.62002 444.15851,982.84832 C 444.04168,983.06572 442.78472,985.21242 441.87768,986.48402 C 441.48897,987.02892 440.56709,988.08802 439.85502,988.81202 C 438.05499,990.64232 432.27444,997.10922 432.25036,997.31492 C 432.20478,997.70542 432.57315,997.49372 434.34382,996.12462 C 436.81846,994.21102 445.54101,985.68202 446.12078,985.07212 C 446.69486,984.46822 450.43219,980.82233 450.78141,980.60281 C 451.15452,980.36828 451.7778,979.89946 452.25017,979.6451 C 452.98872,979.33739 453.56777,979.1708 454.72758,979.44503 C 455.86836,979.71478 457.26256,980.13593 458.43624,981.14882 C 459.62001,982.17041 460.09861,982.85932 460.46004,983.41292 C 460.82148,983.96652 461.05247,984.41992 461.3052,985.02152 C 461.56012,985.62842 462.30189,988.12562 462.63722,989.47362 C 462.97732,990.84072 463.22419,991.98602 463.48692,992.90402 C 463.48692,992.90402 463.94404,994.55322 463.94404,994.55322 C 463.94404,994.55322 463.55835,1001.1611 463.55835,1001.1611 C 463.11073,1004.6229 463.01533,1007.9764 463.61219,1011.5842 C 463.78476,1012.6643 464.29033,1016.043 464.70432,1016.0614 C 465.13536,1016.0807 465.96604,1011.9049 465.99136,1010.1805 C 466.01669,1008.4561 465.74693,1006.2537 465.83517,1004.9356 C 465.92565,1003.5841 466.14053,997.61212 466.48168,995.88482 C 466.8223,994.16012 467.09625,992.77762 467.37083,992.20682 C 467.65402,991.61812 468.09635,990.62892 468.48634,989.96012 C 468.88514,989.27622 469.4636,988.17562 470.8071,987.09362 C 472.14485,986.01622 474.78189,985.56122 476.14915,986.21722 C 477.54377,986.88632 477.45192,986.70272 479.29665,988.37422 C 482.1878,990.99372 483.32799,992.26542 484.66837,994.44022 C 486.15803,996.78042 487.06565,999.31092 488.26546,1001.7521 C 493.28894,1012.6209 495.19785,1015.9771 499.06495,1020.6833 C 500.93682,1022.9613 504.52403,1026.5588 504.74829,1026.3573 C 505.02602,1026.1076 502.33245,1022.6521 500.07211,1020.3747 C 498.30063,1018.5898 497.18854,1017.2756 496.32703,1015.8768 C 495.18072,1014.0157 493.11002,1009.9152 492.83421,1008.9856 C 492.76589,1008.7554 492.47745,1007.9521 492.16959,1007.1681 C 491.86253,1006.3861 491.26911,1004.7277 490.85504,1003.5045 C 490.44257,1002.286 489.26463,999.30742 488.2388,996.89282 C 485.45773,990.34642 485.37342,990.10562 485.38508,988.02552 C 485.39186,986.81622 485.54152,986.38792 485.8294,985.59082 C 486.11728,984.79362 486.97815,983.90822 488.37403,983.11382 C 489.44425,982.70922 490.07592,982.72572 490.96758,982.81362 C 491.57155,982.87322 491.87904,982.93242 492.26286,983.01602 C 492.65915,983.10232 498.96394,984.16812 503.00881,985.29972 C 507.51326,986.56012 516.87478,987.92872 517.61298,987.99132 C 518.34134,988.05322 519.19515,988.01892 519.02021,987.74482 C 518.85862,987.49172 517.48533,987.01112 515.84302,986.61262 C 514.14635,986.25932 512.58227,985.74982 510.78595,985.26782 C 508.97207,984.78112 503.73271,983.14312 501.5251,981.84376 C 499.25428,980.50715 495.98133,976.59452 494.40659,974.97507 C 493.75896,974.30906 493.4206,973.87811 492.27875,972.16016 C 492.08297,971.8656 491.91695,969.22133 493.46416,967.67325 C 495.01137,966.12518 497.13221,964.14498 499.23099,962.12194 C 501.32976,960.09891 503.40647,958.03304 504.86539,956.31361 C 506.32432,954.59418 507.16547,953.2212 506.79313,952.58395 C 506.42079,951.9467 496.68389,960.32513 494.8814,960.99853 C 493.2703,961.60043 492.77198,962.24872 490.47196,962.50921 C 488.17194,962.76972 491.77534,963.89968 485.02378,959.89376 C 478.0543,955.75855 475.57203,945.60254 476.94748,948.48485 C 476.94748,948.48485 477.85639,872.78422 477.85639,872.78422 C 477.85639,872.78422 571.50306,989.73472 571.50306,989.73472 C 571.50306,989.73472 585.67076,990.18372 585.67076,990.18372 C 585.67076,990.18372 585.78534,862.41061 585.78534,862.41061 C 586.50313,862.22299 587.48613,862.1581 590.07467,862.08091 C 592.31728,862.01437 596.98057,861.93787 600.42088,861.93924 C 608.96152,861.94314 606.97515,862.07624 607.00206,856.30236 C 607.01121,854.35582 606.95012,852.68659 606.86451,852.58264 C 606.77892,852.47858 606.48704,850.70489 606.22202,848.65747 C 605.66858,844.38311 605.53409,844.07881 603.44733,843.60919 C 600.85254,843.02531 595.86138,843.22164 591.25706,843.89054 C 587.08256,844.26125 582.91085,844.79572 578.67126,844.80221 C 578.0009,844.95408 574.79374,844.29114 574.78431,844.0014 C 574.78089,843.89674 574.6885,843.88909 574.56419,843.96575 C 574.43993,844.04255 574.34518,843.95864 574.34116,843.83331 C 574.33713,843.7077 574.22841,843.68228 574.11988,843.7493 C 574.01138,843.81631 573.28114,843.65151 572.4754,843.41085 C 571.57559,843.142 570.84411,843.05939 569.76596,843.18705 C 569.76596,843.18705 569.76597,843.18728 569.76597,843.18728 M 469.12939,959.9184 C 470.28429,960.10592 471.5068,961.04297 472.30638,961.6448 C 474.11739,963.00782 475.3944,965.10097 475.28901,966.60588 C 475.23523,967.37369 474.86658,968.30895 474.66537,968.57522 C 474.45566,968.85276 473.9313,969.47239 473.64816,969.83945 C 473.37162,970.19792 472.7844,970.81983 472.41319,971.00945 C 472.04198,971.19908 471.52726,971.39665 471.01678,971.55323 C 470.51082,971.70842 467.02812,971.06194 466.53172,970.79778 C 465.57347,970.28777 464.46356,969.47348 464.01723,968.83959 C 463.57092,968.20569 463.18478,967.47783 462.79207,966.44181 C 462.53436,965.4307 462.64748,963.26754 462.73268,962.82668 C 462.82213,962.36385 463.34606,961.80715 463.47643,961.5533 C 463.60679,961.29944 464.61115,960.46797 465.81319,960.01926 C 467.01521,959.57057 467.97449,959.73089 469.12939,959.9184 z"
       style="font-size:56.00000380999999550px;font-style:normal;font-variant:normal;font-weight:normal;font-stretch:normal;text-indent:0;text-align:start;text-decoration:none;line-height:100%;letter-spacing:normal;word-spacing:normal;text-transform:none;direction:ltr;block-progression:tb;writing-mode:lr-tb;text-anchor:start;fill:#ffffff;fill-opacity:1;stroke:none;stroke-width:1.26840555999999993;marker:none;marker-start:none;marker-mid:none;marker-end:none;visibility:visible;display:inline;overflow:visible;enable-background:accumulate;font-family:Apple LiGothic;-inkscape-font-specification:Apple LiGothic"
       sodipodi:nodetypes="csssssssssccccczcssssssssssssssssssssssssszcczzczsssszzczzzzzcccczzzzzzzzsccssssssssszcszszzczssssssssszcccccssssssccssssscccsszzzzszczzsz" />
  </g>
</svg>
