<?xml version="1.0" encoding="UTF-8" standalone="no"?>
<!-- Created with Inkscape (http://www.inkscape.org/) -->
<svg
   xmlns:dc="http://purl.org/dc/elements/1.1/"
   xmlns:cc="http://creativecommons.org/ns#"
   xmlns:rdf="http://www.w3.org/1999/02/22-rdf-syntax-ns#"
   xmlns:svg="http://www.w3.org/2000/svg"
   xmlns="http://www.w3.org/2000/svg"
   xmlns:xlink="http://www.w3.org/1999/xlink"
   xmlns:sodipodi="http://sodipodi.sourceforge.net/DTD/sodipodi-0.dtd"
   xmlns:inkscape="http://www.inkscape.org/namespaces/inkscape"
   width="744.09448819"
   height="1052.3622047"
   id="svg5403"
   sodipodi:version="0.32"
   inkscape:version="0.46"
   sodipodi:docname="logo3.svg"
   inkscape:output_extension="org.inkscape.output.svg.inkscape"
   inkscape:export-filename="/home/emuller/theway/docs/NeuroTools/logo3.png"
   inkscape:export-xdpi="75"
   inkscape:export-ydpi="75">
  <defs
     id="defs5405">
    <linearGradient
       inkscape:collect="always"
       id="linearGradient5397">
      <stop
         style="stop-color:#000000;stop-opacity:1;"
         offset="0"
         id="stop5399" />
      <stop
         style="stop-color:#000000;stop-opacity:0;"
         offset="1"
         id="stop5401" />
    </linearGradient>
    <linearGradient
       inkscape:collect="always"
       xlink:href="#linearGradient5397"
       id="linearGradient5389"
       x1="-405.71429"
       y1="58.076466"
       x2="-347.14285"
       y2="-30.494961"
       gradientUnits="userSpaceOnUse"
       gradientTransform="translate(864.7005,327.95267)" />
    <inkscape:perspective
       sodipodi:type="inkscape:persp3d"
       inkscape:vp_x="0 : 526.18109 : 1"
       inkscape:vp_y="0 : 1000 : 0"
       inkscape:vp_z="744.09448 : 526.18109 : 1"
       inkscape:persp3d-origin="372.04724 : 350.78739 : 1"
       id="perspective5411" />
  </defs>
  <sodipodi:namedview
     id="base"
     pagecolor="#ffffff"
     bordercolor="#666666"
     borderopacity="1.0"
     gridtolerance="10000"
     guidetolerance="10"
     objecttolerance="10"
     inkscape:pageopacity="0.0"
     inkscape:pageshadow="2"
     inkscape:zoom="0.49497475"
     inkscape:cx="104.76163"
     inkscape:cy="420.13961"
     inkscape:document-units="px"
     inkscape:current-layer="layer1"
     showgrid="false"
     inkscape:window-width="1392"
     inkscape:window-height="976"
     inkscape:window-x="0"
     inkscape:window-y="0" />
  <metadata
     id="metadata5408">
    <rdf:RDF>
      <cc:Work
         rdf:about="">
        <dc:format>image/svg+xml</dc:format>
        <dc:type
           rdf:resource="http://purl.org/dc/dcmitype/StillImage" />
      </cc:Work>
    </rdf:RDF>
  </metadata>
  <g
     inkscape:label="Layer 1"
     inkscape:groupmode="layer"
     id="layer1">
    <path
       id="path5078"
       d="M 409.37424,604.03293 L 409.37424,445.94406 L 562.91743,326.24098 L 564.43266,435.33745 L 409.37424,604.03293 z"
       style="opacity:1;color:#000000;fill:#ffffff;fill-opacity:1;fill-rule:nonzero;stroke:#0151a1;stroke-width:1.26840555999999993;stroke-linecap:butt;stroke-linejoin:miter;marker:none;marker-start:none;marker-mid:none;marker-end:none;stroke-miterlimit:4;stroke-dasharray:none;stroke-dashoffset:0;stroke-opacity:1;visibility:visible;display:inline;overflow:visible;enable-background:accumulate" />
    <path
       id="path5081"
       d="M 408.61196,602.88331 L 408.61196,445.29951 L 254.78224,325.32969 L 254.06795,433.90111 L 408.61196,602.88331 z"
       style="opacity:1;color:#000000;fill:#ffffff;fill-opacity:1;fill-rule:nonzero;stroke:#0151a1;stroke-width:1.26840555999999993;stroke-linecap:butt;stroke-linejoin:miter;marker:none;marker-start:none;marker-mid:none;marker-end:none;stroke-miterlimit:4;stroke-dasharray:none;stroke-dashoffset:0;stroke-opacity:1;visibility:visible;display:inline;overflow:visible;enable-background:accumulate" />
    <path
       id="path5072"
       d="M 255.19499,327.13835 C 255.19499,327.13835 263.10219,333.28529 263.10219,333.28529 C 263.10219,333.28529 282.32069,434.71876 282.32069,434.71876 C 282.32069,434.71876 282.32069,368.21156 282.32069,368.21156 C 282.32059,361.12435 282.09259,356.5194 281.63729,354.40056 C 281.03739,351.55034 280.09289,349.62153 278.80899,348.61246 C 278.80899,348.61246 277.68499,347.72913 277.68499,347.72913 C 277.68499,347.72913 277.68499,344.6217 277.68499,344.6217 C 277.68499,344.6217 289.29529,353.64738 289.29529,353.64738 C 289.29529,353.64738 289.29529,356.85332 289.29529,356.85332 C 289.29529,356.85332 288.08109,355.8991 288.08109,355.8991 C 286.64089,354.76743 285.62609,355.45721 285.02979,357.95595 C 284.66619,359.49183 284.48479,363.50929 284.48479,370.01055 C 284.48479,370.01055 284.48479,467.78717 284.48479,467.78717 C 284.48479,467.78717 283.59639,466.81582 283.59639,466.81582 C 283.59639,466.81582 262.81669,356.10774 262.81669,356.10774 C 262.81669,356.10774 262.81669,423.38768 262.81669,423.38768 C 262.81669,430.10224 263.01429,434.50268 263.41019,436.59254 C 263.96899,439.45401 264.83259,441.51832 266.00559,442.785 C 266.00559,442.785 267.08139,443.94678 267.08139,443.94678 C 267.08139,443.94678 267.08139,446.96424 267.08139,446.96424 C 267.08139,446.96424 256.77749,435.75003 256.77749,435.75003 C 256.77749,435.75003 256.77749,432.82 256.77749,432.82 C 256.77749,432.82 257.77669,433.89898 257.77669,433.89898 C 259.01769,435.23911 259.90039,434.80721 260.41919,432.59114 C 260.73689,431.22175 260.89599,427.49106 260.89599,421.40084 C 260.89599,421.40084 260.89599,345.83416 260.89599,345.83416 C 260.04429,341.46019 259.39749,338.51746 258.95329,336.99295 C 258.52449,335.48383 257.89049,333.89463 257.05329,332.22865 C 256.64329,331.43074 256.02309,330.70587 255.19499,330.05495 C 255.19499,330.05495 255.19499,327.13835 255.19499,327.13835 M 295.69569,427.79304 C 295.67819,439.75937 296.54609,450.03714 298.31159,458.68626 C 300.09339,467.41504 302.20799,473.09717 304.66619,475.69639 C 306.32219,477.44749 307.76869,477.49261 309.00109,475.81296 C 310.25989,474.08142 311.31819,469.98428 312.17269,463.5091 C 312.17269,463.5091 313.05959,466.24424 313.05959,466.24424 C 312.65849,474.24164 311.49829,480.68832 309.59189,485.56121 C 307.70359,490.3273 305.36369,491.15802 302.58839,488.11969 C 299.61959,484.86958 297.10929,478.34804 295.04069,468.59722 C 293.01129,458.91023 292.00469,447.79262 292.00469,435.1678 C 292.00469,421.49581 293.03719,411.80122 295.11919,406.03726 C 297.24159,400.16677 299.93229,398.62008 303.21489,401.48193 C 306.03599,403.94166 308.38389,409.08359 310.24109,416.93579 C 312.11559,424.80069 313.05949,433.9797 313.05959,444.41729 C 313.05959,444.41729 295.69569,427.79304 295.69569,427.79304 M 295.69569,422.68238 C 295.69569,422.68238 307.15549,433.5016 307.15549,433.5016 C 307.06269,428.09173 306.86799,424.16261 306.57179,421.71505 C 306.10979,417.9133 305.41879,414.63643 304.50129,411.88737 C 303.60629,409.16745 302.66999,407.37664 301.69299,406.50884 C 300.20079,405.18365 298.87109,405.92763 297.70069,408.72048 C 296.55489,411.45383 295.88819,416.10536 295.69569,422.68238 M 341.42229,437.5545 C 341.42229,437.5545 341.42229,492.27812 341.42229,492.27812 C 341.42219,502.72984 341.49889,509.21903 341.65239,511.7471 C 341.82789,514.23429 342.09149,516.12549 342.44349,517.42081 C 342.81799,518.74164 343.24839,519.66155 343.73509,520.17973 C 344.42269,520.91181 345.20159,521.17756 346.07289,520.97456 C 346.07289,520.97456 346.54349,524.96592 346.54349,524.96592 C 346.54349,524.96592 337.51449,526.35584 337.51449,526.35584 C 337.51449,526.35584 336.06729,524.77152 336.06729,524.77152 C 336.06729,524.77152 336.06729,505.88117 336.06729,505.88117 C 333.56089,511.50885 331.66909,514.65643 330.37569,515.37022 C 329.09019,516.07961 327.74059,515.65569 326.32839,514.10963 C 324.76369,512.39663 323.41179,509.53101 322.26859,505.51989 C 321.15159,501.48975 320.37729,497.06047 319.94179,492.22343 C 319.50719,487.39665 319.29029,480.99668 319.29029,473.0158 C 319.29029,473.0158 319.29029,434.76382 319.29029,434.76382 C 319.29029,430.71113 319.15229,427.78089 318.87679,425.97498 C 318.60149,424.17167 318.18939,422.62149 317.64119,421.32528 C 317.11399,419.98802 316.15089,418.73105 314.75829,417.55786 C 314.75829,417.55786 314.75829,414.13586 314.75829,414.13586 C 314.75829,414.13586 324.25819,422.47955 324.25819,422.47955 C 324.25819,422.47955 324.25819,480.50916 324.25819,480.50916 C 324.25819,488.58725 324.70299,494.35605 325.59539,497.82677 C 326.51209,501.33424 327.61749,503.7823 328.91459,505.16574 C 329.80449,506.11492 330.81289,506.3249 331.94129,505.79046 C 333.09689,505.27539 334.47079,503.39602 336.06729,500.13613 C 336.06729,500.13613 336.06729,449.59952 336.06729,449.59952 C 336.06729,444.53615 335.75769,440.85015 335.13989,438.54653 C 334.54509,436.20392 333.29719,434.12667 331.40769,432.32209 C 331.40769,432.32209 331.40769,428.75882 331.40769,428.75882 C 331.40769,428.75882 341.42229,437.5545 341.42229,437.5545 M 358.11649,449.4512 C 358.11649,449.4512 358.11649,470.55168 358.11649,470.55168 C 360.85209,458.91359 363.69409,454.31558 366.64609,456.88981 C 368.00059,458.07119 369.12729,460.24323 370.02269,463.40999 C 370.92149,466.51906 371.37229,469.625 371.37229,472.71871 C 371.37229,475.46097 371.04669,477.48542 370.39679,478.78932 C 369.74869,480.08961 368.97839,480.32767 368.08709,479.5086 C 367.22379,478.71544 366.25349,476.64181 365.17749,473.2974 C 364.13089,469.92169 363.35509,468.01002 362.84739,467.55152 C 362.41319,467.15946 361.94369,467.42421 361.43929,468.34367 C 360.36199,470.17981 359.25419,473.78849 358.11649,479.15578 C 358.11649,479.15578 358.11649,524.12236 358.11649,524.12236 C 358.11649,529.31212 358.34119,533.4767 358.79129,536.62091 C 359.09979,538.79745 359.64669,540.92415 360.43369,543.00429 C 361.22339,545.09169 362.36499,546.9436 363.86389,548.56254 C 363.86389,548.56254 363.86389,552.29748 363.86389,552.29748 C 363.86389,552.29748 347.42019,534.401 347.42019,534.401 C 347.42019,534.401 347.42019,530.80182 347.42019,530.80182 C 349.00269,532.511 350.18559,533.05093 350.96259,532.41057 C 351.53559,531.95017 351.93769,530.66414 352.16769,528.55181 C 352.28279,527.52853 352.34039,524.32054 352.34039,518.92829 C 352.34039,518.92829 352.34039,483.03601 352.34039,483.03601 C 352.34039,472.25158 352.25979,465.77404 352.09869,463.60461 C 351.96069,461.39056 351.68489,459.62488 351.27189,458.30844 C 350.88249,457.01533 350.39099,456.10146 349.79819,455.56629 C 349.09339,454.93025 348.30049,454.7154 347.42019,454.9196 C 347.42019,454.9196 347.08259,451.01733 347.08259,451.01733 C 347.08259,451.01733 356.63189,448.1565 356.63189,448.1565 C 356.63189,448.1565 358.11649,449.4512 358.11649,449.4512 M 391.01519,478.14202 C 396.75189,483.14512 401.45819,493.16751 405.06989,508.28422 C 408.17899,521.36032 409.74829,534.62606 409.74829,547.95754 C 409.74829,557.32767 408.88179,565.93058 407.15769,573.72555 C 405.44549,581.46664 403.09979,586.13057 400.13859,587.7427 C 397.24089,589.36597 394.04579,588.24471 390.56589,584.43499 C 385.00019,578.34179 380.66859,567.68162 377.50689,552.50378 C 374.87059,539.8696 373.56359,527.49488 373.56359,515.27272 C 373.56359,506.37114 374.34949,498.28436 375.92919,490.97515 C 377.54549,483.56813 379.67919,478.92191 382.34439,477.0594 C 385.04009,475.10331 387.92819,475.44995 391.01519,478.14202 M 389.75119,484.16919 C 388.31859,482.89856 386.88119,482.78652 385.43909,483.8226 C 384.03219,484.80411 382.89679,487.74745 382.02929,492.64351 C 381.16479,497.52167 380.73379,504.40215 380.73379,513.29838 C 380.73379,527.64723 381.76699,541.08008 383.84699,553.67999 C 385.97219,566.42034 388.79069,574.71959 392.32699,578.53347 C 394.99989,581.41619 397.22689,580.84729 398.99509,576.78065 C 400.77619,572.68423 401.67169,563.31762 401.67169,548.70332 C 401.67169,530.41667 400.18109,514.6403 397.22689,501.49441 C 395.24939,492.59645 392.75209,486.83109 389.75119,484.16919"
       style="font-size:56px;font-style:normal;font-variant:normal;font-weight:normal;font-stretch:normal;text-indent:0;text-align:start;text-decoration:none;line-height:100%;letter-spacing:normal;word-spacing:normal;text-transform:none;direction:ltr;block-progression:tb;writing-mode:lr-tb;text-anchor:start;color:#000000;fill:#000000;fill-opacity:1;fill-rule:nonzero;stroke:none;stroke-width:1.26840556;stroke-linecap:butt;stroke-linejoin:miter;marker:none;marker-start:none;marker-mid:none;marker-end:none;stroke-miterlimit:4;stroke-dashoffset:0;stroke-opacity:1;visibility:visible;display:inline;overflow:visible;enable-background:accumulate;font-family:Times New Roman" />
    <path
       style="font-size:56px;font-style:normal;font-variant:normal;font-weight:normal;font-stretch:normal;text-indent:0;text-align:start;text-decoration:none;line-height:100%;letter-spacing:normal;word-spacing:normal;text-transform:none;direction:ltr;block-progression:tb;writing-mode:lr-tb;text-anchor:start;color:#000000;fill:#000000;fill-opacity:1;fill-rule:nonzero;stroke:none;stroke-width:1.26840556;stroke-linecap:butt;stroke-linejoin:miter;marker:none;marker-start:none;marker-mid:none;marker-end:none;stroke-miterlimit:4;stroke-dashoffset:0;stroke-opacity:1;visibility:visible;display:inline;overflow:visible;enable-background:accumulate;font-family:Times New Roman"
       d="M 460.18129,414.83936 C 460.18129,414.83936 460.93169,445.03825 460.93169,445.03825 C 460.93169,445.03825 459.38659,446.37688 459.38659,446.37688 C 459.06259,441.19928 458.63649,437.66433 458.10759,435.77072 C 457.24249,432.72182 456.09009,430.90916 454.64599,430.33698 C 453.22089,429.67334 451.32769,430.3021 448.95509,432.24032 C 448.95509,432.24032 440.67789,439.00305 440.67789,439.00305 C 440.67789,439.00305 440.99409,544.28751 440.99409,544.28751 C 441.01959,552.83545 441.43579,557.74848 442.24069,559.01462 C 443.36899,560.67899 445.08679,560.25992 447.38099,557.78066 C 447.38099,557.78066 449.40949,555.58858 449.40949,555.58858 C 449.40949,555.58858 449.42329,559.32593 449.42329,559.32593 C 449.42329,559.32593 423.33139,587.73044 423.33139,587.73044 C 423.33139,587.73044 423.32529,583.77627 423.32529,583.77627 C 423.32529,583.77627 425.61309,581.3039 425.61309,581.3039 C 428.31829,578.38057 430.21519,574.50225 431.32199,569.66297 C 431.99549,566.70221 432.32229,561.25023 432.30419,553.3072 C 432.30419,553.3072 432.05819,446.04576 432.05819,446.04576 C 432.05819,446.04576 424.49239,452.22725 424.49239,452.22725 C 421.48899,454.6816 419.33339,456.93517 418.04779,458.97429 C 416.36639,461.69774 414.91939,465.48018 413.71079,470.32671 C 412.49549,475.19968 411.77179,481.03609 411.54389,487.82627 C 411.54389,487.82627 409.64659,489.47005 409.64659,489.47005 C 409.64659,489.47005 410.42939,454.59594 410.42939,454.59594 C 410.42939,454.59594 460.18129,414.83936 460.18129,414.83936 M 477.5467,439.54332 C 482.70907,434.96667 486.8,436.17661 489.88053,443.02911 C 492.46703,448.83198 493.78877,456.97231 493.86637,467.50923 C 493.92077,474.92634 493.28439,483.14955 491.94915,492.22542 C 490.60333,501.37209 488.69359,509.26781 486.20471,515.91981 C 483.70937,522.62745 480.8715,527.74081 477.67941,531.23515 C 472.37551,537.04126 468.04119,536.4282 464.74129,529.22337 C 461.92279,523.08879 460.47619,514.34319 460.42419,503.05102 C 460.38649,494.8398 461.19029,485.90046 462.82519,476.28695 C 464.47229,466.66694 466.63119,458.77291 469.28749,452.59928 C 471.91066,446.43947 474.66497,442.09809 477.5467,439.54332 M 476.41185,446.66287 C 475.06921,447.87207 473.71122,450.10458 472.33744,453.37144 C 470.98027,456.57327 469.88279,461.07975 469.04899,466.89571 C 468.21119,472.73896 467.81149,479.63375 467.85279,487.56766 C 467.91959,500.38634 469.01669,510.39613 471.13136,517.53605 C 473.25567,524.59419 475.9753,526.30695 479.26536,522.75584 C 481.68853,520.1404 483.65084,515.51709 485.1634,508.90398 C 486.66391,502.34278 487.36896,493.08955 487.28752,481.12286 C 487.18583,466.18219 485.83751,455.64449 483.22197,449.43442 C 481.43736,445.11659 479.17281,444.17735 476.41185,446.66287 M 513.01953,408.09528 C 517.38928,404.22132 520.87271,405.58831 523.51706,412.07804 C 525.73948,417.57723 526.89146,425.14624 526.98936,434.83638 C 527.05808,441.65664 526.54,449.16828 525.42889,457.41022 C 524.30966,465.71136 522.70718,472.81733 520.60956,478.7331 C 518.50865,484.69361 516.1141,489.16114 513.41674,492.11391 C 508.94186,497.0125 505.27457,496.11188 502.46478,489.27189 C 500.06727,483.45291 498.81961,475.35805 498.73964,465.04279 C 498.68148,457.54095 499.33063,449.43219 500.679,440.76098 C 502.03867,432.07841 503.83726,425.00217 506.06361,419.52669 C 508.26418,414.05611 510.58383,410.25462 513.01953,408.09528 M 512.07906,414.54956 C 510.94449,415.57139 509.80067,417.52918 508.64731,420.43222 C 507.50842,423.27528 506.59394,427.32821 505.907,432.5953 C 505.21699,437.88509 504.90087,444.16501 504.96093,451.42485 C 505.05794,463.1528 506.01689,472.38702 507.8279,479.07548 C 509.64793,485.6941 511.9569,487.47039 514.73564,484.47116 C 516.78437,482.25988 518.43711,478.171 519.70258,472.2206 C 520.95875,466.31317 521.53048,457.87412 521.42471,446.88593 C 521.29264,433.16457 520.11309,423.40113 517.86973,417.53071 C 516.33989,413.45406 514.4139,412.44767 512.07906,414.54956 M 539.12211,346.47569 C 539.12211,346.47569 540.20684,443.59118 540.20684,443.59118 C 540.25835,448.2125 540.40428,451.15856 540.64431,452.42565 C 540.90255,453.67179 541.27719,454.43785 541.76744,454.72467 C 542.25579,454.95715 543.15206,454.36788 544.45035,452.96462 C 544.45035,452.96462 544.48344,455.84009 544.48344,455.84009 C 544.48344,455.84009 531.79284,469.65552 531.79284,469.65552 C 531.79284,469.65552 531.76172,466.67921 531.76172,466.67921 C 532.98495,465.35707 533.81171,464.10315 534.2469,462.91346 C 534.68093,461.72675 535.01328,460.18177 535.24445,458.27829 C 535.47527,456.3781 535.56559,453.11463 535.51572,448.4886 C 535.51572,448.4886 534.78786,380.97033 534.78786,380.97033 C 534.69803,372.63688 534.57655,367.59005 534.42331,365.82104 C 534.26943,363.99774 534.0364,362.86128 533.72411,362.41123 C 533.43034,361.94567 533.05396,361.89893 532.59423,362.2726 C 532.09491,362.67846 531.46396,363.62745 530.69979,365.12388 C 530.69979,365.12388 530.17552,362.67939 530.17552,362.67939 C 530.17552,362.67939 537.86828,347.46017 537.86828,347.46017 C 537.86828,347.46017 539.12211,346.47569 539.12211,346.47569 M 561.68835,364.94846 C 561.68835,364.94846 561.99357,388.39785 561.99357,388.39785 C 561.99357,388.39785 561.17668,389.17636 561.17668,389.17636 C 560.45151,382.37064 559.57178,378.08563 558.53494,376.32617 C 557.50959,374.54273 556.21624,374.34762 554.64869,375.75698 C 553.44683,376.83755 552.48268,378.66537 551.75965,381.244 C 551.03353,383.83389 550.68334,386.29644 550.71147,388.62378 C 550.74648,391.52122 551.05636,393.7431 551.64008,395.28505 C 552.20541,396.89097 553.32458,398.0918 554.98804,398.88517 C 554.98804,398.88517 558.76929,400.71204 558.76929,400.71204 C 562.20909,402.38806 563.95931,407.27375 564.06623,415.3996 C 564.14883,421.67719 563.4378,427.58405 561.9225,433.15502 C 560.40874,438.70974 558.66215,442.58429 556.67697,444.75745 C 555.2381,446.33256 553.57011,447.3687 551.66735,447.86071 C 551.08156,447.96843 550.60294,448.22323 550.23231,448.62575 C 549.82549,449.06758 549.51466,450.09675 549.30018,451.71443 C 549.30018,451.71443 548.41896,452.67643 548.41896,452.67643 C 548.41896,452.67643 548.11373,426.88492 548.11373,426.88492 C 548.11373,426.88492 548.99382,425.98619 548.99382,425.98619 C 549.5773,432.80166 550.58797,437.32741 552.01892,439.55916 C 553.43999,441.7755 554.99218,441.96322 556.67102,440.14682 C 557.84382,438.87793 558.77717,436.83139 559.47429,434.01049 C 560.18451,431.13342 560.51987,428.25122 560.48266,425.35631 C 560.43764,421.85359 559.99087,419.33361 559.13985,417.78984 C 558.30209,416.22244 556.6299,414.84307 554.10127,413.64462 C 551.5392,412.43046 549.83119,410.69773 549.0001,408.45226 C 548.16644,406.25039 547.72147,402.87184 547.66771,398.32541 C 547.59794,392.4252 548.22356,386.87077 549.53671,381.6884 C 550.85676,376.5321 552.57983,373.02352 554.6952,371.14816 C 555.61613,370.33172 556.73437,369.93039 558.04651,369.94046 C 558.91039,369.93562 559.48249,369.80635 559.76545,369.55321 C 560.03129,369.31538 560.23652,368.95389 560.38125,368.46889 C 560.52575,367.98441 560.68947,367.05163 560.87234,365.67188 C 560.87234,365.67188 561.68835,364.94846 561.68835,364.94846"
       id="path5074" />
    <path
       id="path5084"
       d="M 253.92778,314.29599 L 409.49125,438.54475 L 564.04465,316.3163 L 408.48115,250.65638 L 253.92778,314.29599 z"
       style="opacity:1;color:#000000;fill:#fffcfc;fill-opacity:1;fill-rule:nonzero;stroke:#0151a1;stroke-width:1.26840556;stroke-linecap:butt;stroke-linejoin:miter;marker:none;marker-start:none;marker-mid:none;marker-end:none;stroke-miterlimit:4;stroke-dasharray:none;stroke-dashoffset:0;stroke-opacity:1;visibility:visible;display:inline;overflow:visible;enable-background:accumulate" />
    <path
       sodipodi:nodetypes="ccccc"
       id="path5087"
       d="M 253.92778,314.29599 L 409.49125,438.54476 L 528.33036,247.74487 L 367.05258,189.22781 L 253.92778,314.29599 z"
       style="opacity:1;color:#000000;fill:#ffffff;fill-opacity:1;fill-rule:nonzero;stroke:#0151a1;stroke-width:1.26800001;stroke-linecap:butt;stroke-linejoin:miter;marker:none;marker-start:none;marker-mid:none;marker-end:none;stroke-miterlimit:4;stroke-dasharray:none;stroke-dashoffset:0;stroke-opacity:1;visibility:visible;display:inline;overflow:visible;enable-background:accumulate" />
    <path
       id="path5089"
       d="M 473.80885,244.78343 C 472.72061,244.45402 471.17579,244.14915 468.70692,243.7676 C 461.3327,242.62793 454.25342,242.45265 446.86807,243.15845 C 442.39896,243.58555 439.36106,244.15523 433.74659,245.60919 C 428.15239,247.05792 425.45888,247.99773 422.95882,249.33403 C 421.49982,250.11386 421.36522,250.19311 420.8073,251.15515 C 420.08159,252.40647 420.03579,252.83559 420.54294,253.20764 C 421.03522,253.56872 422.31886,253.53799 424.80816,253.1371 C 429.83335,252.32781 431.42358,252.1725 434.16071,252.17532 C 439.24479,252.18054 442.23961,252.66273 446.08087,254.17913 C 448.4974,255.1331 450.32188,256.3241 451.67111,257.7742 C 451.67111,257.7742 399.36003,331.51414 399.36003,331.51414 C 399.36003,331.51414 389.17468,217.93352 389.17468,217.93352 C 389.17468,217.93352 375.23998,212.79501 375.23998,212.79501 C 354.05394,237.33599 333.10229,262.18849 311.82449,286.58939 C 311.29596,286.78636 310.51344,286.83625 309.87676,286.50943 C 309.24007,286.18261 308.76395,285.19741 308.11157,284.24829 C 307.50818,283.08108 307.41071,282.69116 306.45888,276.89527 C 306.00361,274.12307 305.6912,273.05961 304.46847,270.06646 C 302.61574,265.53114 300.85555,261.62429 300.69283,261.66783 C 300.62169,261.68688 300.8002,262.39797 301.05774,263.23925 C 302.03337,266.4263 302.29043,267.25457 302.49606,267.77674 C 303.04956,269.18217 303.16318,269.42799 303.39829,270.18077 C 303.82461,271.54582 304.25735,273.87366 304.44603,275.86231 C 304.54552,276.91093 304.8285,278.60849 305.11151,279.63319 C 305.6704,281.65681 305.84525,285.09617 305.43361,286.41013 C 305.29543,286.85121 305.02722,287.7242 304.65372,288.24339 C 303.8836,289.31391 301.74177,291.71974 301.60394,291.82964 C 301.28184,292.08648 300.72743,292.23514 300.57559,292.32019 C 300.0173,292.63291 295.99331,293.36156 295.08232,293.25763 C 294.27422,293.16543 292.96488,291.27755 292.88445,291.18835 C 292.5043,290.7668 289.75443,286.93529 288.05725,284.73928 C 286.36008,282.54326 280.49813,279.14457 280.46823,279.03998 C 280.45329,278.98772 288.07984,285.6758 288.77699,288.70427 C 289.12557,290.21851 291.03612,293.53797 291.5663,295.57052 C 292.09649,297.60307 290.83837,299.73858 290.61911,300.08176 C 290.30799,300.56872 288.80064,301.97076 288.62258,302.15634 C 288.07884,302.72304 285.14991,304.57316 282.9268,305.42996 C 281.18412,306.1016 280.85552,306.16067 280.17694,305.96308 C 275.17219,304.50577 269.88238,303.90207 264.79216,304.19453 C 262.41477,304.33112 254.46963,305.29243 254.45771,305.45004 C 254.44711,305.59016 260.11242,305.43934 263.36435,305.19967 C 264.45432,305.11933 265.25295,305.16803 265.46776,305.14883 C 265.68257,305.12963 266.4665,305.12863 266.99268,305.14146 C 268.08799,305.22422 268.40949,305.33306 269.41746,306.04434 C 270.28892,306.52251 270.48296,307.27811 270.77406,307.69622 C 271.06516,308.11433 271.7255,310.24488 271.58239,310.61875 C 271.43928,310.99263 271.12303,311.2752 270.74827,311.68627 C 270.32762,311.92692 270.15003,312.08137 269.90036,312.21689 C 269.66268,312.34592 267.218,313.57888 265.61667,314.2438 C 264.93044,314.52872 263.43975,315.01554 262.34342,315.31546 C 259.57205,316.07362 250.32682,318.98524 250.18344,319.14223 C 249.91148,319.44014 250.38309,319.41694 252.85621,319.0205 C 256.3128,318.46642 269.54249,315.06835 270.44705,314.80767 C 271.34274,314.54955 277.00626,313.10049 277.4644,313.06322 C 277.95389,313.0234 278.81676,312.89449 279.4115,312.87856 C 280.28861,312.92652 280.93251,313.02461 281.86566,313.71344 C 282.7835,314.39098 283.85158,315.29313 284.3646,316.58583 C 284.88204,317.88963 284.92947,318.64016 284.9457,319.23401 C 284.96194,319.82785 284.91388,320.28808 284.79942,320.87706 C 284.68396,321.47116 283.91905,323.79227 283.44475,325.01905 C 282.96371,326.26326 282.52495,327.29012 282.23435,328.13941 C 282.23435,328.13941 281.69827,329.65916 281.69827,329.65916 C 281.69827,329.65916 277.45903,334.856 277.45903,334.856 C 275.00648,337.47978 272.94968,340.15759 271.39674,343.31991 C 270.92606,344.26417 269.42136,347.2042 269.80103,347.38575 C 270.19633,347.57478 273.42893,344.52685 274.46416,343.14037 C 275.49939,341.75388 276.53663,339.86149 277.39288,338.82944 C 278.27088,337.77119 281.97614,333.02055 283.31098,331.75879 C 284.64374,330.499 285.71301,329.48943 286.30674,329.13764 C 286.91912,328.7748 287.91646,328.15164 288.67658,327.76687 C 289.45386,327.37341 290.64502,326.71469 292.54687,326.37895 C 294.44058,326.04464 297.19482,326.73729 298.09975,327.81881 C 299.02279,328.92198 299.04386,328.73627 299.8036,330.83243 C 300.99429,334.11762 301.32402,335.60635 301.31285,337.90719 C 301.34545,340.40212 300.71745,342.81693 300.4174,345.27704 C 298.78136,356.10174 298.61356,359.58827 299.50107,364.9562 C 299.93066,367.55457 301.20443,371.91185 301.53414,371.83889 C 301.94254,371.74844 301.42844,367.86574 300.63207,365.11153 C 300.00793,362.95302 299.72973,361.44104 299.73747,359.96143 C 299.74775,357.99272 300.19944,353.83828 300.48447,352.97438 C 300.55507,352.76039 300.75414,351.99366 300.92357,351.23477 C 301.09257,350.47782 301.50545,348.89581 301.83227,347.73846 C 302.15784,346.58555 302.79365,343.69904 303.24221,341.33049 C 304.4583,334.90917 304.51999,334.68022 305.75103,333.00003 C 306.46664,332.02332 306.85901,331.73663 307.59806,331.20684 C 308.33711,330.67705 309.66844,330.30629 311.45099,330.2246 C 312.6978,330.32752 313.28394,330.59509 314.07341,331.02514 C 314.60816,331.31644 314.86352,331.48807 315.17653,331.71023 C 315.49972,331.93961 320.82159,335.34001 323.97324,337.88425 C 327.4829,340.71769 335.51049,345.59334 336.17005,345.94115 C 336.82082,346.28432 337.64627,346.60015 337.64199,346.30777 C 337.63804,346.03771 336.62455,345.09582 335.30915,344.11218 C 333.91599,343.14325 332.73944,342.10125 331.32775,340.988 C 329.90226,339.86386 325.92089,336.4288 324.60065,334.48799 C 323.24261,332.4916 322.45012,328.00549 321.91454,326.06012 C 321.69427,325.26007 321.62786,324.77486 321.55837,322.92391 C 321.54646,322.60654 322.94071,320.398 325.30805,319.76673 C 327.67539,319.13547 330.83725,318.38504 334.00342,317.59104 C 337.16958,316.79704 340.34006,315.95946 342.72462,315.15388 C 345.10919,314.34831 346.70785,313.57474 346.73038,312.90876 C 346.75291,312.24278 332.65468,315.11073 330.55953,314.93082 C 328.68685,314.77001 327.8366,315.09457 325.51432,314.38001 C 323.19204,313.66546 322.56812,311.80341 321.90926,310.06922 C 321.20884,308.22565 321.80661,307.62156 321.84459,307.06131 C 321.84459,307.06131 371.60808,246.91796 371.60808,246.91796 C 371.60808,246.91796 377.71508,375.88121 377.71508,375.88121 C 377.71508,375.88121 397.12944,389.11409 397.12944,389.11409 C 397.12944,389.11409 477.64481,266.79978 477.64481,266.79978 C 478.43191,266.93666 479.39718,267.27967 481.88409,268.2588 C 484.03846,269.10735 488.48199,270.92193 491.72626,272.30745 C 499.77994,275.74743 497.82823,275.0559 501.23995,270.39015 C 502.39021,268.81722 503.31158,267.44064 503.29179,267.32199 C 503.27209,267.20326 504.03703,265.6492 504.98785,263.88424 C 506.97269,260.19949 507.02431,259.8989 505.33139,258.6788 C 503.2263,257.16172 498.40323,255.31226 493.6679,254.00122 C 489.51287,252.62163 485.26444,251.3758 481.26164,249.67501 C 480.54025,249.52826 477.9039,247.70072 478.06493,247.46225 C 478.12309,247.3761 478.04043,247.33273 477.87822,247.3448 C 477.71596,247.357 477.6758,247.25091 477.74551,247.14778 C 477.81538,247.04442 477.72774,246.98008 477.58607,246.99069 C 477.44442,247.0013 476.85228,246.57397 476.2334,246.05481 C 475.54234,245.47496 474.90082,245.1137 473.80898,244.78324 C 473.80898,244.78324 473.80885,244.78343 473.80885,244.78343 M 306.90241,303.69315 C 307.88179,304.30977 308.48535,305.56069 308.88659,306.3699 C 309.79543,308.20265 309.77235,310.41189 308.79032,311.58839 C 308.28928,312.18864 307.39302,312.79781 307.04707,312.93251 C 306.68649,313.07291 305.82847,313.36378 305.34612,313.54714 C 304.87504,313.72621 303.9564,313.99362 303.49504,313.99783 C 303.03368,314.00204 302.4323,313.95494 301.85895,313.87634 C 301.29069,313.79843 298.38478,311.87335 298.07148,311.45963 C 297.46673,310.66094 296.89737,309.55477 296.84815,308.86174 C 296.79894,308.16871 296.8616,307.42379 297.0988,306.42663 C 297.44872,305.50397 298.82409,303.79743 299.16302,303.47464 C 299.51884,303.13576 300.33954,302.8957 300.61139,302.74255 C 300.88324,302.58939 302.31826,302.3201 303.71524,302.44038 C 305.11221,302.56066 305.92302,303.07653 306.90241,303.69315 z"
       style="font-size:56.00000381px;font-style:normal;font-variant:normal;font-weight:normal;font-stretch:normal;text-indent:0;text-align:start;text-decoration:none;line-height:100%;letter-spacing:normal;word-spacing:normal;text-transform:none;direction:ltr;block-progression:tb;writing-mode:lr-tb;text-anchor:start;color:#000000;fill:#000000;fill-opacity:1;stroke:none;stroke-width:1.26840556;marker:none;marker-start:none;marker-mid:none;marker-end:none;visibility:visible;display:inline;overflow:visible;enable-background:accumulate;font-family:Apple LiGothic;-inkscape-font-specification:Apple LiGothic"
       sodipodi:nodetypes="csssssssssccccczcssssssssssssssssssssssssszcczzczsssszzczzzzzcccczzzzzzzzsccssssssssszcszszzczssssssssszcccccssssssccssssscccsszzzzszczzsz" />
    <path
       style="opacity:1;color:#000000;fill:url(#linearGradient5389);fill-opacity:1;fill-rule:nonzero;stroke:none;stroke-width:1.26840556;stroke-linecap:butt;stroke-linejoin:miter;marker:none;marker-start:none;marker-mid:none;marker-end:none;stroke-miterlimit:4;stroke-dasharray:none;stroke-dashoffset:0;stroke-opacity:1;visibility:visible;display:inline;overflow:visible;enable-background:accumulate"
       d="M 412.91478,434.95771 L 501.12907,290.672 L 562.91478,315.672"
       id="path5359"
       sodipodi:nodetypes="ccc" />
    <flowRoot
       xml:space="preserve"
       id="flowRoot5467"
       style="font-size:56px;font-style:normal;font-variant:normal;font-weight:normal;font-stretch:normal;text-indent:0;text-align:start;text-decoration:none;line-height:100%;letter-spacing:normal;word-spacing:normal;text-transform:none;direction:ltr;block-progression:tb;writing-mode:lr-tb;text-anchor:start;opacity:1;color:#000000;fill:#000000;fill-opacity:1;fill-rule:nonzero;stroke:none;stroke-width:1.26840555999999993;stroke-linecap:butt;stroke-linejoin:miter;marker:none;marker-start:none;marker-mid:none;marker-end:none;stroke-miterlimit:4;stroke-dasharray:none;stroke-dashoffset:0;stroke-opacity:1;visibility:visible;display:inline;overflow:visible;enable-background:accumulate;font-family:Times New Roman"><flowRegion
         id="flowRegion5469"><rect
           id="rect5471"
           width="404.061"
           height="94.954338"
           x="165.66502"
           y="100.79848"
           style="fill:#000000;fill-opacity:1;stroke:none" /></flowRegion><flowPara
         id="flowPara5473" /></flowRoot>    <flowRoot
       xml:space="preserve"
       id="flowRoot5984"
       style="font-size:56px;font-style:normal;font-variant:normal;font-weight:normal;font-stretch:normal;text-indent:0;text-align:start;text-decoration:none;line-height:100%;letter-spacing:normal;word-spacing:normal;text-transform:none;direction:ltr;block-progression:tb;writing-mode:lr-tb;text-anchor:start;opacity:1;color:#000000;fill:none;fill-opacity:1;fill-rule:nonzero;stroke:#0151a1;stroke-width:1.26840556;stroke-linecap:butt;stroke-linejoin:miter;marker:none;marker-start:none;marker-mid:none;marker-end:none;stroke-miterlimit:4;stroke-dasharray:none;stroke-dashoffset:0;stroke-opacity:1;visibility:visible;display:inline;overflow:visible;enable-background:accumulate;font-family:Times New Roman"><flowRegion
         id="flowRegion5986"><rect
           id="rect5988"
           width="193.9493"
           height="68.690376"
           x="125.25892"
           y="92.717262" /></flowRegion><flowPara
         id="flowPara5990" /></flowRoot>    <flowRoot
       xml:space="preserve"
       id="flowRoot5992"
       style="font-size:56px;font-style:normal;font-variant:normal;font-weight:normal;font-stretch:normal;text-indent:0;text-align:start;text-decoration:none;line-height:100%;letter-spacing:normal;word-spacing:normal;text-transform:none;direction:ltr;block-progression:tb;writing-mode:lr-tb;text-anchor:start;opacity:1;color:#000000;fill:#000000;fill-opacity:1;fill-rule:nonzero;stroke:none;stroke-width:1.26840556;stroke-linecap:butt;stroke-linejoin:miter;marker:none;marker-start:none;marker-mid:none;marker-end:none;stroke-miterlimit:4;stroke-dasharray:none;stroke-dashoffset:0;stroke-opacity:1;visibility:visible;display:inline;overflow:visible;enable-background:accumulate;font-family:Times New Roman"
       transform="translate(82.832508,18.182745)"><flowRegion
         id="flowRegion5994"><rect
           id="rect5996"
           width="472.7514"
           height="111.11678"
           x="117.1777"
           y="76.554825"
           style="fill:#000000;fill-opacity:1;stroke:none" /></flowRegion><flowPara
         id="flowPara5998">Complex logo:</flowPara></flowRoot>    <flowRoot
       xml:space="preserve"
       id="flowRoot6000"
       style="font-size:56px;font-style:normal;font-variant:normal;font-weight:normal;font-stretch:normal;text-indent:0;text-align:start;text-decoration:none;line-height:100%;letter-spacing:normal;word-spacing:normal;text-transform:none;direction:ltr;block-progression:tb;writing-mode:lr-tb;text-anchor:start;opacity:1;color:#000000;fill:#000000;fill-opacity:1;fill-rule:nonzero;stroke:none;stroke-width:1.26840556;stroke-linecap:butt;stroke-linejoin:miter;marker:none;marker-start:none;marker-mid:none;marker-end:none;stroke-miterlimit:4;stroke-dasharray:none;stroke-dashoffset:0;stroke-opacity:1;visibility:visible;display:inline;overflow:visible;enable-background:accumulate;font-family:Times New Roman"
       transform="translate(88.893424,-16.162441)"><flowRegion
         id="flowRegion6002"><rect
           id="rect6004"
           width="523.25903"
           height="96.974648"
           x="129.29953"
           y="662.4433"
           style="fill:#000000;fill-opacity:1;stroke:none" /></flowRegion><flowPara
         id="flowPara6006">Simple logos:</flowPara></flowRoot>    <path
       id="path6014"
       d="M 642.35743,821.86649 C 641.30044,821.44747 639.78643,821.01485 637.35798,820.42874 C 630.10449,818.67808 623.06448,817.91305 615.646,818.00051 C 611.15684,818.05342 608.08201,818.36777 602.36585,819.34846 C 596.67032,820.32563 593.90782,821.03755 591.30503,822.16071 C 589.78609,822.81616 589.64535,822.8839 589.00914,823.79606 C 588.1816,824.98251 588.10017,825.40631 588.57453,825.81936 C 589.03498,826.22023 590.31672,826.29666 592.83078,826.10476 C 597.90595,825.71735 599.50359,825.6952 602.23096,825.92626 C 607.29689,826.35544 610.24107,827.08569 613.94249,828.91715 C 616.27105,830.06931 617.98986,831.40832 619.21346,832.96588 C 619.21346,832.96588 560.9352,902.08659 560.9352,902.08659 C 560.9352,902.08659 560.25715,788.05222 560.25715,788.05222 C 560.25715,788.05222 546.7995,781.76955 546.7995,781.76955 C 523.64071,804.45829 500.68952,827.477 477.45098,850.01848 C 476.90786,850.17069 476.12391,850.15515 475.5167,849.77638 C 474.90949,849.3976 474.51718,848.37612 473.94622,847.37591 C 473.44227,846.16245 473.37765,845.76576 472.91248,839.91068 C 472.68998,837.11017 472.46734,836.02436 471.49847,832.93967 C 470.03041,828.26564 468.60216,824.22561 468.43638,824.25543 C 468.3639,824.26848 468.48248,824.99198 468.66897,825.85181 C 469.37542,829.10912 469.56252,829.95594 469.72389,830.49344 C 470.15825,831.94013 470.25098,832.19457 470.42249,832.96434 C 470.73349,834.36018 470.97059,836.716 470.99278,838.71346 C 471.00448,839.76673 471.1449,841.48197 471.34148,842.5267 C 471.72966,844.58987 471.61709,848.03184 471.09731,849.3069 C 470.92282,849.73491 470.58275,850.5825 470.16725,851.06874 C 469.31054,852.07131 466.97554,854.29014 466.82903,854.38816 C 466.48663,854.61725 465.92176,854.71915 465.76336,854.79124 C 465.18093,855.05632 461.1102,855.44686 460.21104,855.26732 C 459.41345,855.10805 458.2661,853.11756 458.19339,853.02196 C 457.84972,852.57018 455.42895,848.5227 453.92081,846.1928 C 452.41268,843.8629 446.85458,839.9872 446.83351,839.88049 C 446.82298,839.82716 453.86523,847.12794 454.3074,850.204 C 454.52848,851.74203 456.15555,855.20926 456.51439,857.27895 C 456.87324,859.34863 455.4414,861.37178 455.1943,861.69548 C 454.84365,862.1548 453.22463,863.42625 453.03172,863.59634 C 452.44261,864.11572 449.36959,865.71514 447.08278,866.38357 C 445.29015,866.90754 444.95778,866.939 444.29803,866.68551 C 439.43225,864.81592 434.21121,863.77319 429.11433,863.64014 C 426.73382,863.578 418.7362,863.87339 418.71117,864.02946 C 418.68893,864.1682 424.34708,864.49036 427.60767,864.52271 C 428.70054,864.53355 429.49233,864.64867 429.70799,864.64745 C 429.92366,864.64623 430.70494,864.71061 431.22821,864.76728 C 432.31281,864.9411 432.62412,865.07637 433.56926,865.86922 C 434.39781,866.4184 434.52816,867.18755 434.78338,867.62848 C 435.03859,868.06941 435.51897,870.24761 435.34517,870.60823 C 435.17138,870.96888 434.83267,871.2241 434.42493,871.60249 C 433.98568,871.80721 433.79583,871.94631 433.53573,872.06054 C 433.28812,872.1693 430.74913,873.1941 429.09793,873.72317 C 428.39033,873.94986 426.86423,874.31068 425.74672,874.51813 C 422.92178,875.04254 413.46594,877.17303 413.30996,877.31751 C 413.01411,877.5917 413.48601,877.60791 415.98358,877.41909 C 419.47433,877.1552 432.94132,874.87222 433.86446,874.68789 C 434.77855,874.50537 440.54319,873.53365 441.00285,873.53471 C 441.49395,873.53585 442.36457,873.47935 442.95856,873.51307 C 443.82862,873.634 444.46209,873.78546 445.33455,874.5497 C 446.19269,875.30142 447.18182,876.2895 447.58525,877.62048 C 447.99215,878.96289 447.97683,879.71476 447.94348,880.30789 C 447.91014,880.90102 447.82387,881.35564 447.6607,881.93302 C 447.49609,882.51542 446.54028,884.76466 445.96533,885.94761 C 445.3822,887.14737 444.85934,888.13407 444.49893,888.95617 C 444.49893,888.95617 443.83799,890.42592 443.83799,890.42592 C 443.83799,890.42592 439.18012,895.25113 439.18012,895.25113 C 436.51731,897.66125 434.24437,900.15821 432.43312,903.18001 C 431.88534,904.08173 430.14071,906.88604 430.50391,907.09862 C 430.88207,907.31995 434.35758,904.55221 435.50483,903.2569 C 436.65208,901.96157 437.84352,900.16227 438.78286,899.20522 C 439.74605,898.22388 443.83457,893.79877 445.26998,892.65272 C 446.70315,891.50847 447.85289,890.59158 448.47389,890.29053 C 449.1144,889.98003 450.16023,889.4422 450.94979,889.12216 C 451.75717,888.79489 452.99912,888.23781 454.92234,888.06183 C 456.83733,887.88661 459.52422,888.80653 460.3358,889.95974 C 461.16363,891.13605 461.20012,890.95274 461.78241,893.10496 C 462.69499,896.478 462.89941,897.98905 462.69641,900.28093 C 462.52084,902.7699 461.69365,905.12392 461.18949,907.55044 C 458.65644,918.201 458.19847,921.66139 458.63525,927.08464 C 458.84665,929.70978 459.75262,934.15811 460.08727,934.1129 C 460.50179,934.05682 460.31327,930.14478 459.74935,927.33375 C 459.30739,925.13071 459.15625,923.6008 459.28735,922.12698 C 459.46177,920.16599 460.25834,916.06368 460.61442,915.22656 C 460.70262,915.0192 460.96494,914.27174 461.19706,913.52963 C 461.42859,912.78941 461.97197,911.24734 462.39416,910.12128 C 462.81475,908.99953 463.68906,906.1761 464.33357,903.8532 C 466.08092,897.55567 466.16148,897.33266 467.52835,895.76098 C 468.32293,894.84735 468.73783,894.59438 469.51849,894.12807 C 470.29915,893.66175 471.65676,893.40331 473.43991,893.47056 C 474.6738,893.67709 475.23558,893.99261 475.98644,894.48699 C 476.49503,894.82187 476.73519,895.0142 477.02858,895.2617 C 477.33152,895.51722 482.35129,899.34958 485.27978,902.14779 C 488.54093,905.26404 496.13397,910.79215 496.76222,911.19376 C 497.3821,911.59 498.17834,911.97356 498.19846,911.68185 C 498.21705,911.4124 497.28563,910.38927 496.05684,909.29936 C 494.74933,908.21763 493.66378,907.08114 492.34985,905.85404 C 491.02306,904.61495 487.34203,900.85984 486.18823,898.81569 C 485.00141,896.713 484.58578,892.17643 484.2143,890.19317 C 484.06152,889.37754 484.0358,888.88848 484.12091,887.03818 C 484.13551,886.72092 485.70907,884.63634 488.12082,884.20469 C 490.53256,883.77306 493.74598,883.28892 496.96734,882.76171 C 500.18868,882.23451 503.41797,881.66425 505.8614,881.06033 C 508.30485,880.45642 509.96244,879.81887 510.04043,879.15708 C 510.11842,878.4953 495.83013,880.17757 493.75728,879.82357 C 491.90454,879.50715 491.03019,879.75967 488.77559,878.85394 C 486.52098,877.94822 486.05451,876.04062 485.54257,874.25753 C 484.99833,872.36197 485.6444,871.80983 485.72896,871.2547 C 485.72896,871.2547 540.33464,815.47077 540.33464,815.47077 C 540.33464,815.47077 535.66575,944.49408 535.66575,944.49408 C 535.66575,944.49408 553.90895,959.2999 553.90895,959.2999 C 553.90895,959.2999 644.34402,844.12605 644.34402,844.12605 C 645.11696,844.32809 646.05027,844.7504 648.44686,845.93351 C 650.52297,846.95876 654.79969,849.13758 657.91712,850.78882 C 665.65588,854.88844 663.76863,854.03656 667.55755,849.67157 C 668.83498,848.20005 669.86794,846.9051 669.85811,846.78521 C 669.84838,846.66525 670.74025,845.1804 671.83495,843.50088 C 674.12016,839.99448 674.19666,839.69925 672.61139,838.34222 C 670.64014,836.65487 665.9881,834.40964 661.37861,832.70828 C 657.35309,830.98699 653.22335,829.39122 649.37633,827.36254 C 648.66969,827.15614 646.19493,825.11512 646.37529,824.8909 C 646.44042,824.80991 646.36167,824.7598 646.19902,824.7583 C 646.0363,824.75692 646.00514,824.64785 646.08321,824.5509 C 646.16144,824.45372 646.07948,824.3823 645.93742,824.38106 C 645.79538,824.37982 645.24093,823.90459 644.66751,823.33563 C 644.02721,822.70017 643.41805,822.28668 642.35757,821.86631 C 642.35757,821.86631 642.35743,821.86649 642.35743,821.86649 M 471.11971,866.6522 C 472.04426,867.34835 472.54139,868.64525 472.87376,869.4851 C 473.6266,871.38725 473.41936,873.58687 472.34264,874.67738 C 471.79328,875.23375 470.84935,875.76606 470.49337,875.87144 C 470.12233,875.98128 469.24305,876.19959 468.74708,876.34208 C 468.26271,876.48124 467.32498,876.67112 466.86487,876.63684 C 466.40476,876.60256 465.80942,876.50548 465.24461,876.37933 C 464.68482,876.2543 461.94958,874.0936 461.67187,873.6552 C 461.13583,872.80885 460.66071,871.65906 460.66945,870.96434 C 460.6782,870.26962 460.80277,869.53251 461.1223,868.55861 C 461.54795,867.66835 463.06083,866.08244 463.4255,865.78904 C 463.80835,865.48101 464.6462,865.31023 464.92988,865.18028 C 465.21355,865.05033 466.66604,864.90165 468.04812,865.138 C 469.43019,865.37437 470.19516,865.95606 471.11971,866.6522 z"
       style="font-size:56.00000381px;font-style:normal;font-variant:normal;font-weight:normal;font-stretch:normal;text-indent:0;text-align:start;text-decoration:none;line-height:100%;letter-spacing:normal;word-spacing:normal;text-transform:none;direction:ltr;block-progression:tb;writing-mode:lr-tb;text-anchor:start;color:#000000;fill:#000000;fill-opacity:1;stroke:none;stroke-width:1.26840556;marker:none;marker-start:none;marker-mid:none;marker-end:none;visibility:visible;display:inline;overflow:visible;enable-background:accumulate;font-family:Apple LiGothic;-inkscape-font-specification:Apple LiGothic"
       sodipodi:nodetypes="csssssssssccccczcssssssssssssssssssssssssszcczzczsssszzczzzzzcccczzzzzzzzsccssssssssszcszszzczssssssssszcccccssssssccssssscccsszzzzszczzsz" />
    <path
       sodipodi:nodetypes="ccccc"
       id="path6016"
       d="M 72.479418,866.90382 L 228.04292,991.15259 L 346.88203,800.3527 L 185.60425,741.83564 L 72.479418,866.90382 z"
       style="opacity:1;color:#000000;fill:#ffffff;fill-opacity:1;fill-rule:nonzero;stroke:#0151a1;stroke-width:1.26800001;stroke-linecap:butt;stroke-linejoin:miter;marker:none;marker-start:none;marker-mid:none;marker-end:none;stroke-miterlimit:4;stroke-dasharray:none;stroke-dashoffset:0;stroke-opacity:1;visibility:visible;display:inline;overflow:visible;enable-background:accumulate" />
    <path
       id="path6018"
       d="M 292.36052,797.39126 C 291.27228,797.06185 289.72746,796.75698 287.25859,796.37543 C 279.88437,795.23576 272.80509,795.06048 265.41974,795.76628 C 260.95063,796.19338 257.91273,796.76306 252.29826,798.21702 C 246.70406,799.66575 244.01055,800.60556 241.51049,801.94186 C 240.05149,802.72169 239.91689,802.80094 239.35897,803.76298 C 238.63326,805.0143 238.58746,805.44342 239.09461,805.81547 C 239.58689,806.17655 240.87053,806.14582 243.35983,805.74493 C 248.38502,804.93564 249.97525,804.78033 252.71238,804.78315 C 257.79646,804.78837 260.79128,805.27056 264.63254,806.78696 C 267.04907,807.74093 268.87355,808.93193 270.22278,810.38203 C 270.22278,810.38203 217.9117,884.12197 217.9117,884.12197 C 217.9117,884.12197 207.72635,770.54135 207.72635,770.54135 C 207.72635,770.54135 193.79165,765.40284 193.79165,765.40284 C 172.60561,789.94382 151.65396,814.79632 130.37616,839.19722 C 129.84763,839.39419 129.06511,839.44408 128.42843,839.11726 C 127.79174,838.79044 127.31562,837.80524 126.66324,836.85612 C 126.05985,835.68891 125.96238,835.29899 125.01055,829.5031 C 124.55528,826.7309 124.24287,825.66744 123.02014,822.67429 C 121.16741,818.13897 119.40722,814.23212 119.2445,814.27566 C 119.17336,814.29471 119.35187,815.0058 119.60941,815.84708 C 120.58504,819.03413 120.8421,819.8624 121.04773,820.38457 C 121.60123,821.79 121.71485,822.03582 121.94996,822.7886 C 122.37628,824.15365 122.80902,826.48149 122.9977,828.47014 C 123.09719,829.51876 123.38017,831.21632 123.66318,832.24102 C 124.22207,834.26464 124.39692,837.704 123.98528,839.01796 C 123.8471,839.45904 123.57889,840.33203 123.20539,840.85122 C 122.43527,841.92174 120.29344,844.32757 120.15561,844.43747 C 119.83351,844.69431 119.2791,844.84297 119.12726,844.92802 C 118.56897,845.24074 114.54498,845.96939 113.63399,845.86546 C 112.82589,845.77326 111.51655,843.88538 111.43612,843.79618 C 111.05597,843.37463 108.3061,839.54312 106.60892,837.34711 C 104.91175,835.15109 99.049798,831.7524 99.019898,831.64781 C 99.004958,831.59555 106.63151,838.28363 107.32866,841.3121 C 107.67724,842.82634 109.58779,846.1458 110.11797,848.17835 C 110.64816,850.2109 109.39004,852.34641 109.17078,852.68959 C 108.85966,853.17655 107.35231,854.57859 107.17425,854.76417 C 106.63051,855.33087 103.70158,857.18099 101.47847,858.03779 C 99.735788,858.70943 99.407188,858.7685 98.728608,858.57091 C 93.723858,857.1136 88.434048,856.5099 83.343828,856.80236 C 80.966438,856.93895 73.021318,857.90026 73.009418,858.05787 C 72.998818,858.19799 78.664118,858.04717 81.916018,857.8075 C 83.005988,857.72716 83.804618,857.77586 84.019428,857.75666 C 84.234238,857.73746 85.018168,857.73646 85.544348,857.74929 C 86.639658,857.83205 86.961158,857.94089 87.969128,858.65217 C 88.840588,859.13034 89.034628,859.88594 89.325728,860.30405 C 89.616828,860.72216 90.277168,862.85271 90.134058,863.22658 C 89.990948,863.60046 89.674698,863.88303 89.299938,864.2941 C 88.879288,864.53475 88.701698,864.6892 88.452028,864.82472 C 88.214348,864.95375 85.769668,866.18671 84.168338,866.85163 C 83.482108,867.13655 81.991418,867.62337 80.895088,867.92329 C 78.123718,868.68145 68.878518,871.59307 68.735118,871.75006 C 68.463118,872.04797 68.934718,872.02477 71.407918,871.62833 C 74.864418,871.07425 88.094158,867.67618 88.998718,867.4155 C 89.894408,867.15738 95.557928,865.70832 96.016068,865.67105 C 96.505558,865.63123 97.368428,865.50232 97.963168,865.48639 C 98.840278,865.53435 99.484178,865.63244 100.41733,866.32127 C 101.33517,866.99881 102.40325,867.90096 102.91627,869.19366 C 103.43371,870.49746 103.48114,871.24799 103.49737,871.84184 C 103.51361,872.43568 103.46555,872.89591 103.35109,873.48489 C 103.23563,874.07899 102.47072,876.4001 101.99642,877.62688 C 101.51538,878.87109 101.07662,879.89795 100.78602,880.74724 C 100.78602,880.74724 100.24994,882.26699 100.24994,882.26699 C 100.24994,882.26699 96.010698,887.46383 96.010698,887.46383 C 93.558148,890.08761 91.501348,892.76542 89.948408,895.92774 C 89.477728,896.872 87.973028,899.81203 88.352698,899.99358 C 88.747998,900.18261 91.980598,897.13468 93.015828,895.7482 C 94.051058,894.36171 95.088298,892.46932 95.944548,891.43727 C 96.822548,890.37902 100.52781,885.62838 101.86265,884.36662 C 103.19541,883.10683 104.26468,882.09726 104.85841,881.74547 C 105.47079,881.38263 106.46813,880.75947 107.22825,880.3747 C 108.00553,879.98124 109.19669,879.32252 111.09854,878.98678 C 112.99225,878.65247 115.74649,879.34512 116.65142,880.42664 C 117.57446,881.52981 117.59553,881.3441 118.35527,883.44026 C 119.54596,886.72545 119.87569,888.21418 119.86452,890.51502 C 119.89712,893.00995 119.26912,895.42476 118.96907,897.88487 C 117.33303,908.70957 117.16523,912.1961 118.05274,917.56403 C 118.48233,920.1624 119.7561,924.51968 120.08581,924.44672 C 120.49421,924.35627 119.98011,920.47357 119.18374,917.71936 C 118.5596,915.56085 118.2814,914.04887 118.28914,912.56926 C 118.29942,910.60055 118.75111,906.44611 119.03614,905.58221 C 119.10674,905.36822 119.30581,904.60149 119.47524,903.8426 C 119.64424,903.08565 120.05712,901.50364 120.38394,900.34629 C 120.70951,899.19338 121.34532,896.30687 121.79388,893.93832 C 123.00997,887.517 123.07166,887.28805 124.3027,885.60786 C 125.01831,884.63115 125.41068,884.34446 126.14973,883.81467 C 126.88878,883.28488 128.22011,882.91412 130.00266,882.83243 C 131.24947,882.93535 131.83561,883.20292 132.62508,883.63297 C 133.15983,883.92427 133.41519,884.0959 133.7282,884.31806 C 134.05139,884.54744 139.37326,887.94784 142.52491,890.49208 C 146.03457,893.32552 154.06216,898.20117 154.72172,898.54898 C 155.37249,898.89215 156.19794,899.20798 156.19366,898.9156 C 156.18971,898.64554 155.17622,897.70365 153.86082,896.72001 C 152.46766,895.75108 151.29111,894.70908 149.87942,893.59583 C 148.45393,892.47169 144.47256,889.03663 143.15232,887.09582 C 141.79428,885.09943 141.00179,880.61332 140.46621,878.66795 C 140.24594,877.8679 140.17953,877.38269 140.11004,875.53174 C 140.09813,875.21437 141.49238,873.00583 143.85972,872.37456 C 146.22706,871.7433 149.38892,870.99287 152.55509,870.19887 C 155.72125,869.40487 158.89173,868.56729 161.27629,867.76171 C 163.66086,866.95614 165.25952,866.18257 165.28205,865.51659 C 165.30458,864.85061 151.20635,867.71856 149.1112,867.53865 C 147.23852,867.37784 146.38827,867.7024 144.06599,866.98784 C 141.74371,866.27329 141.11979,864.41124 140.46093,862.67705 C 139.76051,860.83348 140.35828,860.22939 140.39626,859.66914 C 140.39626,859.66914 190.15975,799.52579 190.15975,799.52579 C 190.15975,799.52579 196.26675,928.48904 196.26675,928.48904 C 196.26675,928.48904 215.68111,941.72192 215.68111,941.72192 C 215.68111,941.72192 296.19648,819.40761 296.19648,819.40761 C 296.98358,819.54449 297.94885,819.8875 300.43576,820.86663 C 302.59013,821.71518 307.03366,823.52976 310.27793,824.91528 C 318.33161,828.35526 316.3799,827.66373 319.79162,822.99798 C 320.94188,821.42505 321.86325,820.04847 321.84346,819.92982 C 321.82376,819.81109 322.5887,818.25703 323.53952,816.49207 C 325.52436,812.80732 325.57598,812.50673 323.88306,811.28663 C 321.77797,809.76955 316.9549,807.92009 312.21957,806.60905 C 308.06454,805.22946 303.81611,803.98363 299.81331,802.28284 C 299.09192,802.13609 296.45557,800.30855 296.6166,800.07008 C 296.67476,799.98393 296.5921,799.94056 296.42989,799.95263 C 296.26763,799.96483 296.22747,799.85874 296.29718,799.75561 C 296.36705,799.65225 296.27941,799.58791 296.13774,799.59852 C 295.99609,799.60913 295.40395,799.1818 294.78507,798.66264 C 294.09401,798.08279 293.45249,797.72153 292.36065,797.39107 C 292.36065,797.39107 292.36052,797.39126 292.36052,797.39126 M 125.45408,856.30098 C 126.43346,856.9176 127.03702,858.16852 127.43826,858.97773 C 128.3471,860.81048 128.32402,863.01972 127.34199,864.19622 C 126.84095,864.79647 125.94469,865.40564 125.59874,865.54034 C 125.23816,865.68074 124.38014,865.97161 123.89779,866.15497 C 123.42671,866.33404 122.50807,866.60145 122.04671,866.60566 C 121.58535,866.60987 120.98397,866.56277 120.41062,866.48417 C 119.84236,866.40626 116.93645,864.48118 116.62315,864.06746 C 116.0184,863.26877 115.44904,862.1626 115.39982,861.46957 C 115.35061,860.77654 115.41327,860.03162 115.65047,859.03446 C 116.00039,858.1118 117.37576,856.40526 117.71469,856.08247 C 118.07051,855.74359 118.89121,855.50353 119.16306,855.35038 C 119.43491,855.19722 120.86993,854.92793 122.26691,855.04821 C 123.66388,855.16849 124.47469,855.68436 125.45408,856.30098 z"
       style="font-size:56.00000381px;font-style:normal;font-variant:normal;font-weight:normal;font-stretch:normal;text-indent:0;text-align:start;text-decoration:none;line-height:100%;letter-spacing:normal;word-spacing:normal;text-transform:none;direction:ltr;block-progression:tb;writing-mode:lr-tb;text-anchor:start;color:#000000;fill:#000000;fill-opacity:1;stroke:none;stroke-width:1.26840556;marker:none;marker-start:none;marker-mid:none;marker-end:none;visibility:visible;display:inline;overflow:visible;enable-background:accumulate;font-family:Apple LiGothic;-inkscape-font-specification:Apple LiGothic"
       sodipodi:nodetypes="csssssssssccccczcssssssssssssssssssssssssszcczzczsssszzczzzzzcccczzzzzzzzsccssssssssszcszszzczssssssssszcccccssssssccssssscccsszzzzszczzsz" />
    <flowRoot
       xml:space="preserve"
       id="flowRoot6020"
       style="font-size:56px;font-style:normal;font-variant:normal;font-weight:normal;font-stretch:normal;text-indent:0;text-align:start;text-decoration:none;line-height:100%;letter-spacing:normal;word-spacing:normal;text-transform:none;direction:ltr;block-progression:tb;writing-mode:lr-tb;text-anchor:start;opacity:1;color:#000000;fill:#000000;fill-opacity:1;fill-rule:nonzero;stroke:none;stroke-width:1.26840556;stroke-linecap:butt;stroke-linejoin:miter;marker:none;marker-start:none;marker-mid:none;marker-end:none;stroke-miterlimit:4;stroke-dasharray:none;stroke-dashoffset:0;stroke-opacity:1;visibility:visible;display:inline;overflow:visible;enable-background:accumulate;font-family:Times New Roman"
       transform="matrix(0.7219365,0,0,0.7219365,148.24261,200.06195)"><flowRegion
         id="flowRegion6022"><rect
           id="rect6024"
           width="398.00009"
           height="141.42136"
           x="436.38589"
           y="714.97125"
           style="fill:#000000;fill-opacity:1;stroke:none" /></flowRegion><flowPara
         id="flowPara6026">(favicon...)</flowPara></flowRoot>  </g>
</svg>
