<?xml version="1.0" encoding="UTF-8" standalone="no"?>
<!-- Created with Inkscape (http://www.inkscape.org/) -->
<svg
   xmlns:dc="http://purl.org/dc/elements/1.1/"
   xmlns:cc="http://creativecommons.org/ns#"
   xmlns:rdf="http://www.w3.org/1999/02/22-rdf-syntax-ns#"
   xmlns:svg="http://www.w3.org/2000/svg"
   xmlns="http://www.w3.org/2000/svg"
   xmlns:xlink="http://www.w3.org/1999/xlink"
   xmlns:sodipodi="http://sodipodi.sourceforge.net/DTD/sodipodi-0.dtd"
   xmlns:inkscape="http://www.inkscape.org/namespaces/inkscape"
   width="2104.7244"
   height="2979.9211"
   id="svg2517"
   sodipodi:version="0.32"
   inkscape:version="0.46"
   version="1.0"
   sodipodi:docname="NT_at_INCF_at_SfN.svg"
   inkscape:output_extension="org.inkscape.output.svg.inkscape">
  <defs
     id="defs2519">
    <linearGradient
       inkscape:collect="always"
       id="linearGradient5397">
      <stop
         style="stop-color:#000000;stop-opacity:1;"
         offset="0"
         id="stop5399" />
      <stop
         style="stop-color:#000000;stop-opacity:0;"
         offset="1"
         id="stop5401" />
    </linearGradient>
    <linearGradient
       inkscape:collect="always"
       xlink:href="#linearGradient5397"
       id="linearGradient3366"
       gradientUnits="userSpaceOnUse"
       gradientTransform="translate(849.89045,267.23148)"
       x1="-405.71429"
       y1="58.076466"
       x2="-347.14285"
       y2="-30.494961" />
    <inkscape:perspective
       sodipodi:type="inkscape:persp3d"
       inkscape:vp_x="0 : 526.18109 : 1"
       inkscape:vp_y="0 : 1000 : 0"
       inkscape:vp_z="744.09448 : 526.18109 : 1"
       inkscape:persp3d-origin="372.04724 : 350.78739 : 1"
       id="perspective2525" />
  </defs>
  <sodipodi:namedview
     id="base"
     pagecolor="#ffffff"
     bordercolor="#666666"
     borderopacity="1.0"
     inkscape:pageopacity="0.0"
     inkscape:pageshadow="2"
     inkscape:zoom="0.16711852"
     inkscape:cx="1014.3169"
     inkscape:cy="1489.9606"
     inkscape:document-units="px"
     inkscape:current-layer="layer1"
     showgrid="true"
     units="cm"
     showguides="false"
     inkscape:snap-global="true"
     inkscape:guide-bbox="true"
     inkscape:window-width="982"
     inkscape:window-height="701"
     inkscape:window-x="37"
     inkscape:window-y="22">
    <inkscape:grid
       type="xygrid"
       id="grid2540"
       visible="true"
       enabled="true" />
  </sodipodi:namedview>
  <metadata
     id="metadata2522">
    <rdf:RDF>
      <cc:Work
         rdf:about="">
        <dc:format>image/svg+xml</dc:format>
        <dc:type
           rdf:resource="http://purl.org/dc/dcmitype/StillImage" />
      </cc:Work>
    </rdf:RDF>
  </metadata>
  <g
     inkscape:label="Ebene 1"
     inkscape:groupmode="layer"
     id="layer1">
    <g
       id="g3356"
       transform="matrix(3.8101823,0,0,3.8101823,-460.35561,-374.53597)">
      <path
         style="opacity:1;fill:#ffffff;fill-opacity:1;fill-rule:nonzero;stroke:#000000;stroke-width:1.26840556;stroke-linecap:butt;stroke-linejoin:miter;marker:none;marker-start:none;marker-mid:none;marker-end:none;stroke-miterlimit:4;stroke-dasharray:none;stroke-dashoffset:0;stroke-opacity:1;visibility:visible;display:inline;overflow:visible;enable-background:accumulate"
         d="M 394.56419,543.31174 L 394.56419,385.22287 L 548.10738,265.51979 L 549.62261,374.61626 L 394.56419,543.31174 z"
         id="path5078" />
      <path
         style="opacity:1;fill:#ffffff;fill-opacity:1;fill-rule:nonzero;stroke:#000000;stroke-width:1.26840556;stroke-linecap:butt;stroke-linejoin:miter;marker:none;marker-start:none;marker-mid:none;marker-end:none;stroke-miterlimit:4;stroke-dasharray:none;stroke-dashoffset:0;stroke-opacity:1;visibility:visible;display:inline;overflow:visible;enable-background:accumulate"
         d="M 393.80191,542.16212 L 393.80191,384.57832 L 239.97219,264.6085 L 239.2579,373.17992 L 393.80191,542.16212 z"
         id="path5081" />
      <path
         style="font-size:56px;font-style:normal;font-variant:normal;font-weight:normal;font-stretch:normal;text-indent:0;text-align:start;text-decoration:none;line-height:100%;letter-spacing:normal;word-spacing:normal;text-transform:none;direction:ltr;block-progression:tb;writing-mode:lr-tb;text-anchor:start;fill:#000000;fill-opacity:1;fill-rule:nonzero;stroke:none;stroke-width:1.26840556;stroke-linecap:butt;stroke-linejoin:miter;marker:none;marker-start:none;marker-mid:none;marker-end:none;stroke-miterlimit:4;stroke-dashoffset:0;stroke-opacity:1;visibility:visible;display:inline;overflow:visible;enable-background:accumulate;font-family:Times New Roman"
         d="M 248.11261,279.48345 C 248.11261,279.48345 255.22909,285.0157 255.22909,285.0157 C 255.22909,285.0157 272.52574,376.30582 272.52574,376.30582 C 272.52574,376.30582 272.52574,316.44934 272.52574,316.44934 C 272.52565,310.07085 272.32045,305.9264 271.91068,304.01944 C 271.37077,301.45424 270.52072,299.71832 269.36521,298.81015 C 269.36521,298.81015 268.35361,298.01516 268.35361,298.01516 C 268.35361,298.01516 268.35361,295.21847 268.35361,295.21847 C 268.35361,295.21847 278.80288,303.34158 278.80288,303.34158 C 278.80288,303.34158 278.80288,306.22693 278.80288,306.22693 C 278.80288,306.22693 277.7101,305.36813 277.7101,305.36813 C 276.41392,304.34963 275.5006,304.97043 274.96393,307.21929 C 274.63669,308.60159 274.47343,312.2173 274.47343,318.06843 C 274.47343,318.06843 274.47343,406.06739 274.47343,406.06739 C 274.47343,406.06739 273.67387,405.19318 273.67387,405.19318 C 273.67387,405.19318 254.97214,305.5559 254.97214,305.5559 C 254.97214,305.5559 254.97214,366.10785 254.97214,366.10785 C 254.97214,372.15095 255.14998,376.11135 255.50629,377.99222 C 256.00921,380.56755 256.78645,382.42543 257.84215,383.56544 C 257.84215,383.56544 258.81037,384.61104 258.81037,384.61104 C 258.81037,384.61104 258.81037,387.32675 258.81037,387.32675 C 258.81037,387.32675 249.53686,377.23397 249.53686,377.23397 C 249.53686,377.23397 249.53686,374.59694 249.53686,374.59694 C 249.53686,374.59694 250.43614,375.56802 250.43614,375.56802 C 251.55304,376.77414 252.34747,376.38543 252.81439,374.39096 C 253.10032,373.15851 253.24351,369.80089 253.24351,364.31969 C 253.24351,364.31969 253.24351,296.30968 253.24351,296.30968 C 252.47698,292.37311 251.89486,289.72465 251.49508,288.35259 C 251.10916,286.99439 250.53856,285.56411 249.78508,284.06472 C 249.41608,283.3466 248.8579,282.69422 248.11261,282.10839 C 248.11261,282.10839 248.11261,279.48345 248.11261,279.48345 M 284.56324,370.07267 C 284.54749,380.84237 285.3286,390.09236 286.91755,397.87657 C 288.52117,405.73247 290.42431,410.84639 292.63669,413.18569 C 294.12709,414.76168 295.42894,414.80229 296.5381,413.2906 C 297.67102,411.73222 298.62349,408.04479 299.39254,402.21713 C 299.39254,402.21713 300.19075,404.67875 300.19075,404.67875 C 299.82976,411.87641 298.78558,417.67843 297.06982,422.06403 C 295.37035,426.35351 293.26444,427.10116 290.76667,424.36666 C 288.09475,421.44156 285.83548,415.57217 283.97374,406.79644 C 282.14728,398.07815 281.24134,388.0723 281.24134,376.70996 C 281.24134,364.40517 282.17059,355.68004 284.04439,350.49247 C 285.95455,345.20903 288.37618,343.81701 291.33052,346.39268 C 293.86951,348.60643 295.98262,353.23417 297.6541,360.30115 C 299.34115,367.37956 300.19066,375.64067 300.19075,385.0345 C 300.19075,385.0345 284.56324,370.07267 284.56324,370.07267 M 284.56324,365.47308 C 284.56324,365.47308 294.87706,375.21038 294.87706,375.21038 C 294.79354,370.3415 294.61831,366.80529 294.35173,364.60248 C 293.93593,361.18091 293.31403,358.23173 292.48828,355.75757 C 291.68278,353.30964 290.84011,351.69791 289.96081,350.91689 C 288.61783,349.72422 287.4211,350.39381 286.36774,352.90737 C 285.33652,355.36739 284.73649,359.55376 284.56324,365.47308 M 325.71718,378.85799 C 325.71718,378.85799 325.71718,428.10925 325.71718,428.10925 C 325.71709,437.51579 325.78612,443.35607 325.92427,445.63133 C 326.08222,447.8698 326.31946,449.57188 326.63626,450.73767 C 326.97331,451.92641 327.36067,452.75433 327.7987,453.2207 C 328.41754,453.87957 329.11855,454.11874 329.90272,453.93604 C 329.90272,453.93604 330.32626,457.52827 330.32626,457.52827 C 330.32626,457.52827 322.20016,458.77919 322.20016,458.77919 C 322.20016,458.77919 320.89768,457.35331 320.89768,457.35331 C 320.89768,457.35331 320.89768,440.35199 320.89768,440.35199 C 318.64192,445.4169 316.9393,448.24973 315.77524,448.89214 C 314.61829,449.53059 313.40365,449.14906 312.13267,447.75761 C 310.72444,446.21591 309.50773,443.63685 308.47885,440.02684 C 307.47355,436.39971 306.77668,432.41336 306.38473,428.06003 C 305.99359,423.71592 305.79838,417.95595 305.79838,410.77316 C 305.79838,410.77316 305.79838,376.34638 305.79838,376.34638 C 305.79838,372.69896 305.67418,370.06174 305.42623,368.43642 C 305.17846,366.81344 304.80757,365.41828 304.31419,364.25169 C 303.83971,363.04816 302.97292,361.91688 301.71958,360.86101 C 301.71958,360.86101 301.71958,357.78121 301.71958,357.78121 C 301.71958,357.78121 310.26949,365.29053 310.26949,365.29053 C 310.26949,365.29053 310.26949,417.51718 310.26949,417.51718 C 310.26949,424.78746 310.66981,429.97938 311.47297,433.10303 C 312.298,436.25975 313.29286,438.46301 314.46025,439.7081 C 315.26116,440.56237 316.16872,440.75135 317.18428,440.27035 C 318.22432,439.80679 319.46083,438.11536 320.89768,435.18146 C 320.89768,435.18146 320.89768,389.69851 320.89768,389.69851 C 320.89768,385.14147 320.61904,381.82407 320.06302,379.75082 C 319.5277,377.64247 318.40459,375.77294 316.70404,374.14882 C 316.70404,374.14882 316.70404,370.94188 316.70404,370.94188 C 316.70404,370.94188 325.71718,378.85799 325.71718,378.85799 M 340.74196,389.56502 C 340.74196,389.56502 340.74196,408.55545 340.74196,408.55545 C 343.204,398.08117 345.7618,393.94296 348.4186,396.25977 C 349.63765,397.32301 350.65168,399.27785 351.45754,402.12793 C 352.26646,404.92609 352.67218,407.72144 352.67218,410.50578 C 352.67218,412.97381 352.37914,414.79582 351.79423,415.96933 C 351.21094,417.13959 350.51767,417.35384 349.7155,416.61668 C 348.93853,415.90283 348.06526,414.03657 347.09686,411.0266 C 346.15492,407.98846 345.4567,406.26796 344.99977,405.85531 C 344.60899,405.50245 344.18644,405.74073 343.73248,406.56824 C 342.76291,408.22077 341.76589,411.46858 340.74196,416.29914 C 340.74196,416.29914 340.74196,456.76906 340.74196,456.76906 C 340.74196,461.43985 340.94419,465.18797 341.34928,468.01776 C 341.62693,469.97664 342.11914,471.89067 342.82744,473.7628 C 343.53817,475.64146 344.56561,477.30818 345.91462,478.76522 C 345.91462,478.76522 345.91462,482.12667 345.91462,482.12667 C 345.91462,482.12667 331.11529,466.01984 331.11529,466.01984 C 331.11529,466.01984 331.11529,462.78058 331.11529,462.78058 C 332.53954,464.31884 333.60415,464.80478 334.30345,464.22845 C 334.81915,463.81409 335.18104,462.65666 335.38804,460.75557 C 335.49163,459.83462 335.54347,456.94742 335.54347,452.0944 C 335.54347,452.0944 335.54347,419.79135 335.54347,419.79135 C 335.54347,410.08536 335.47093,404.25557 335.32594,402.30309 C 335.20174,400.31044 334.95352,398.72133 334.58182,397.53653 C 334.23136,396.37274 333.78901,395.55025 333.25549,395.0686 C 332.62117,394.49616 331.90756,394.3028 331.11529,394.48658 C 331.11529,394.48658 330.81145,390.97454 330.81145,390.97454 C 330.81145,390.97454 339.40582,388.39979 339.40582,388.39979 C 339.40582,388.39979 340.74196,389.56502 340.74196,389.56502 M 370.35079,415.38676 C 375.51382,419.88955 379.74949,428.9097 383.00002,442.51474 C 385.79821,454.28323 387.21058,466.22239 387.21058,478.22072 C 387.21058,486.65384 386.43073,494.39646 384.87904,501.41193 C 383.33806,508.37891 381.22693,512.57645 378.56185,514.02737 C 375.95392,515.48831 373.07833,514.47918 369.94642,511.05043 C 364.93729,505.56655 361.03885,495.9724 358.19332,482.31234 C 355.82065,470.94158 354.64435,459.80433 354.64435,448.80439 C 354.64435,440.79296 355.35166,433.51486 356.77339,426.93657 C 358.22806,420.27026 360.14839,416.08866 362.54707,414.4124 C 364.9732,412.65192 367.57249,412.96389 370.35079,415.38676 M 369.21319,420.81121 C 367.92385,419.66764 366.63019,419.56681 365.3323,420.49928 C 364.06609,421.38264 363.04423,424.03164 362.26348,428.4381 C 361.48543,432.82844 361.09753,439.02087 361.09753,447.02748 C 361.09753,459.94145 362.02741,472.03101 363.89941,483.37093 C 365.81209,494.83724 368.34874,502.30657 371.53141,505.73906 C 373.93702,508.33351 375.94132,507.8215 377.5327,504.16152 C 379.13569,500.47475 379.94164,492.0448 379.94164,478.89193 C 379.94164,462.43394 378.6001,448.23521 375.94132,436.40391 C 374.16157,428.39574 371.914,423.20692 369.21319,420.81121"
         id="path5072" />
      <path
         id="path5074"
         d="M 448.03907,359.34454 C 448.03907,359.34454 448.71443,386.52354 448.71443,386.52354 C 448.71443,386.52354 447.32384,387.72831 447.32384,387.72831 C 447.03224,383.06847 446.64875,379.88701 446.17274,378.18276 C 445.39415,375.43875 444.35699,373.80736 443.0573,373.2924 C 441.77471,372.69512 440.07083,373.26101 437.93549,375.0054 C 437.93549,375.0054 430.48601,381.09186 430.48601,381.09186 C 430.48601,381.09186 430.77059,475.84788 430.77059,475.84788 C 430.79354,483.54102 431.16812,487.96275 431.89253,489.10227 C 432.908,490.60021 434.45402,490.22304 436.5188,487.99171 C 436.5188,487.99171 438.34445,486.01884 438.34445,486.01884 C 438.34445,486.01884 438.35687,489.38245 438.35687,489.38245 C 438.35687,489.38245 414.87416,514.94651 414.87416,514.94651 C 414.87416,514.94651 414.86867,511.38776 414.86867,511.38776 C 414.86867,511.38776 416.92769,509.16263 416.92769,509.16263 C 419.36237,506.53163 421.06958,503.04114 422.0657,498.68579 C 422.67185,496.02111 422.96597,491.11432 422.94968,483.9656 C 422.94968,483.9656 422.72828,387.4303 422.72828,387.4303 C 422.72828,387.4303 415.91906,392.99364 415.91906,392.99364 C 413.216,395.20256 411.27596,397.23077 410.11892,399.06598 C 408.60566,401.51708 407.30336,404.92128 406.21562,409.28316 C 405.12185,413.66883 404.47052,418.9216 404.26541,425.03276 C 404.26541,425.03276 402.55784,426.51216 402.55784,426.51216 C 402.55784,426.51216 403.26236,395.12546 403.26236,395.12546 C 403.26236,395.12546 448.03907,359.34454 448.03907,359.34454 M 463.66794,381.5781 C 468.31408,377.45912 471.99591,378.54807 474.76839,384.71532 C 477.09624,389.9379 478.28581,397.2642 478.35565,406.74742 C 478.40461,413.42282 477.83186,420.82371 476.63015,428.99199 C 475.41891,437.224 473.70014,444.33015 471.46015,450.31695 C 469.21435,456.35382 466.66026,460.95585 463.78738,464.10075 C 459.01387,469.32625 455.11298,468.7745 452.14307,462.29015 C 449.60642,456.76903 448.30448,448.89799 448.25768,438.73503 C 448.22375,431.34494 448.94717,423.29953 450.41858,414.64737 C 451.90097,405.98936 453.84398,398.88474 456.23465,393.32847 C 458.59551,387.78464 461.07439,383.8774 463.66794,381.5781 M 462.64658,387.9857 C 461.4382,389.07398 460.21601,391.08324 458.97961,394.02341 C 457.75816,396.90506 456.77042,400.96089 456.02,406.19526 C 455.26598,411.45418 454.90625,417.65949 454.94342,424.80001 C 455.00354,436.33682 455.99093,445.34563 457.89414,451.77156 C 459.80602,458.12389 462.25368,459.66537 465.21474,456.46937 C 467.39559,454.11548 469.16167,449.9545 470.52297,444.0027 C 471.87343,438.09762 472.50798,429.76971 472.43468,418.99969 C 472.34316,405.55309 471.12967,396.06916 468.77569,390.48009 C 467.16954,386.59405 465.13144,385.74873 462.64658,387.9857 M 495.59349,353.27487 C 499.52627,349.7883 502.66135,351.0186 505.04127,356.85935 C 507.04145,361.80862 508.07823,368.62073 508.16634,377.34186 C 508.22819,383.48009 507.76191,390.24057 506.76191,397.65831 C 505.75461,405.12934 504.31238,411.52471 502.42452,416.84891 C 500.5337,422.21337 498.3786,426.23414 495.95098,428.89164 C 491.92359,433.30037 488.62303,432.48981 486.09422,426.33382 C 483.93646,421.09674 482.81356,413.81136 482.74159,404.52763 C 482.68925,397.77597 483.27348,390.47809 484.48701,382.674 C 485.71072,374.85969 487.32945,368.49107 489.33316,363.56314 C 491.31368,358.63962 493.40136,355.21827 495.59349,353.27487 M 494.74707,359.08372 C 493.72595,360.00337 492.69652,361.76538 491.65849,364.37811 C 490.63349,366.93687 489.81046,370.58451 489.19221,375.32489 C 488.5712,380.0857 488.2867,385.73763 488.34075,392.27148 C 488.42806,402.82664 489.29111,411.13743 490.92102,417.15705 C 492.55905,423.11381 494.63712,424.71247 497.13799,422.01316 C 498.98185,420.02301 500.46931,416.34302 501.60824,410.98766 C 502.73879,405.67097 503.25335,398.07582 503.15815,388.18645 C 503.03929,375.83723 501.97769,367.05013 499.95867,361.76676 C 498.58181,358.09777 496.84842,357.19202 494.74707,359.08372 M 519.08581,297.81724 C 519.08581,297.81724 520.06207,385.22118 520.06207,385.22118 C 520.10843,389.38037 520.23977,392.03182 520.45579,393.1722 C 520.68821,394.29373 521.02538,394.98318 521.46661,395.24132 C 521.90612,395.45055 522.71277,394.92021 523.88123,393.65727 C 523.88123,393.65727 523.91101,396.2452 523.91101,396.2452 C 523.91101,396.2452 512.48947,408.67908 512.48947,408.67908 C 512.48947,408.67908 512.46146,406.00041 512.46146,406.00041 C 513.56237,404.81048 514.30645,403.68195 514.69812,402.61123 C 515.08875,401.54319 515.38787,400.15271 515.59592,398.43958 C 515.80366,396.72941 515.88494,393.79228 515.84006,389.62886 C 515.84006,389.62886 515.18499,328.86241 515.18499,328.86241 C 515.10414,321.36231 514.99481,316.82016 514.85689,315.22805 C 514.7184,313.58708 514.50867,312.56427 514.22761,312.15922 C 513.96322,311.74022 513.62448,311.69815 513.21072,312.03446 C 512.76133,312.39973 512.19348,313.25382 511.50572,314.60061 C 511.50572,314.60061 511.03388,312.40057 511.03388,312.40057 C 511.03388,312.40057 517.95737,298.70327 517.95737,298.70327 C 517.95737,298.70327 519.08581,297.81724 519.08581,297.81724 M 539.39543,314.44273 C 539.39543,314.44273 539.67013,335.54718 539.67013,335.54718 C 539.67013,335.54718 538.93493,336.24784 538.93493,336.24784 C 538.28227,330.12269 537.49052,326.26618 536.55736,324.68267 C 535.63454,323.07757 534.47053,322.90197 533.05973,324.1704 C 531.97806,325.14291 531.11033,326.78795 530.4596,329.10872 C 529.80609,331.43962 529.49092,333.65591 529.51624,335.75052 C 529.54775,338.35821 529.82664,340.35791 530.35199,341.74566 C 530.86078,343.19099 531.86804,344.27174 533.36515,344.98577 C 533.36515,344.98577 536.76827,346.62995 536.76827,346.62995 C 539.86409,348.13837 541.43929,352.53549 541.53552,359.84876 C 541.60986,365.49859 540.96993,370.81476 539.60616,375.82863 C 538.24378,380.82788 536.67185,384.31498 534.88519,386.27082 C 533.5902,387.68842 532.08901,388.62095 530.37653,389.06376 C 529.84932,389.1607 529.41856,389.39002 529.08499,389.75229 C 528.71885,390.14994 528.43911,391.07619 528.24608,392.5321 C 528.24608,392.5321 527.45298,393.3979 527.45298,393.3979 C 527.45298,393.3979 527.17827,370.18554 527.17827,370.18554 C 527.17827,370.18554 527.97035,369.37669 527.97035,369.37669 C 528.49548,375.51061 529.40509,379.58379 530.69294,381.59236 C 531.9719,383.58707 533.36888,383.75601 534.87983,382.12125 C 535.93535,380.97925 536.77537,379.13737 537.40277,376.59856 C 538.04197,374.00919 538.3438,371.41521 538.31031,368.8098 C 538.26979,365.65735 537.8677,363.38937 537.10178,361.99997 C 536.34779,360.58931 534.84282,359.34788 532.56706,358.26927 C 530.26119,357.17653 528.72398,355.61707 527.976,353.59615 C 527.22571,351.61447 526.82524,348.57377 526.77685,344.48199 C 526.71406,339.1718 527.27712,334.17281 528.45895,329.50868 C 529.647,324.86801 531.19776,321.71028 533.10159,320.02246 C 533.93043,319.28766 534.93685,318.92647 536.11777,318.93553 C 536.89526,318.93117 537.41015,318.81483 537.66482,318.58701 C 537.90407,318.37296 538.08878,318.04762 538.21904,317.61112 C 538.34909,317.17509 538.49644,316.33558 538.66102,315.09381 C 538.66102,315.09381 539.39543,314.44273 539.39543,314.44273"
         style="font-size:56px;font-style:normal;font-variant:normal;font-weight:normal;font-stretch:normal;text-indent:0;text-align:start;text-decoration:none;line-height:100%;letter-spacing:normal;word-spacing:normal;text-transform:none;direction:ltr;block-progression:tb;writing-mode:lr-tb;text-anchor:start;fill:#000000;fill-opacity:1;fill-rule:nonzero;stroke:none;stroke-width:1.26840556;stroke-linecap:butt;stroke-linejoin:miter;marker:none;marker-start:none;marker-mid:none;marker-end:none;stroke-miterlimit:4;stroke-dashoffset:0;stroke-opacity:1;visibility:visible;display:inline;overflow:visible;enable-background:accumulate;font-family:Times New Roman" />
      <path
         style="opacity:1;fill:#fffcfc;fill-opacity:1;fill-rule:nonzero;stroke:#000000;stroke-width:1.26840556;stroke-linecap:butt;stroke-linejoin:miter;marker:none;marker-start:none;marker-mid:none;marker-end:none;stroke-miterlimit:4;stroke-dasharray:none;stroke-dashoffset:0;stroke-opacity:1;visibility:visible;display:inline;overflow:visible;enable-background:accumulate"
         d="M 239.11773,253.5748 L 394.6812,377.82356 L 549.2346,255.59511 L 393.6711,189.93519 L 239.11773,253.5748 z"
         id="path5084" />
      <path
         style="opacity:1;fill:#ffffff;fill-opacity:1;fill-rule:nonzero;stroke:#000000;stroke-width:1.26800001;stroke-linecap:butt;stroke-linejoin:miter;marker:none;marker-start:none;marker-mid:none;marker-end:none;stroke-miterlimit:4;stroke-dasharray:none;stroke-dashoffset:0;stroke-opacity:1;visibility:visible;display:inline;overflow:visible;enable-background:accumulate"
         d="M 239.11773,253.5748 L 394.6812,377.82357 L 513.52031,187.02368 L 352.24253,128.50662 L 239.11773,253.5748 z"
         id="path5087"
         sodipodi:nodetypes="ccccc" />
      <path
         sodipodi:nodetypes="ccc"
         id="path5359"
         d="M 398.10473,374.23652 L 486.31902,229.95081 L 548.10473,254.95081"
         style="opacity:1;fill:url(#linearGradient3366);fill-opacity:1;fill-rule:nonzero;stroke:none;stroke-width:1.26840556;stroke-linecap:butt;stroke-linejoin:miter;marker:none;marker-start:none;marker-mid:none;marker-end:none;stroke-miterlimit:4;stroke-dasharray:none;stroke-dashoffset:0;stroke-opacity:1;visibility:visible;display:inline;overflow:visible;enable-background:accumulate" />
      <path
         sodipodi:nodetypes="csssssssssccccczcssssssssssssssssssssssssszcczzczsssszzczzzzzcccczzzzzzzzsccssssssssszcszszzczssssssssszcccccssssssccssssscccsszzzzszczzsz"
         style="font-size:56.00000381px;font-style:normal;font-variant:normal;font-weight:normal;font-stretch:normal;text-indent:0;text-align:start;text-decoration:none;line-height:100%;letter-spacing:normal;word-spacing:normal;text-transform:none;direction:ltr;block-progression:tb;writing-mode:lr-tb;text-anchor:start;fill:#000000;fill-opacity:1;stroke:none;stroke-width:1.26840556;marker:none;marker-start:none;marker-mid:none;marker-end:none;visibility:visible;display:inline;overflow:visible;enable-background:accumulate;font-family:Apple LiGothic;-inkscape-font-specification:Apple LiGothic"
         d="M 457.35038,185.45708 C 456.26214,185.12767 454.71732,184.8228 452.24845,184.44125 C 444.87423,183.30158 437.79495,183.1263 430.4096,183.8321 C 425.94049,184.2592 422.90259,184.82888 417.28812,186.28284 C 411.69392,187.73157 409.00041,188.67138 406.50035,190.00768 C 405.04135,190.78751 404.90675,190.86676 404.34883,191.8288 C 403.62312,193.08012 403.57732,193.50924 404.08447,193.88129 C 404.57675,194.24237 405.86039,194.21164 408.34969,193.81075 C 413.37488,193.00146 414.96511,192.84615 417.70224,192.84897 C 422.78632,192.85419 430.95355,192.25879 434.79481,193.77519 C 437.21134,194.72916 443.7772,197.42879 445.12643,198.87889 C 445.12643,198.87889 384.6257,288.5671 384.6257,288.5671 C 384.6257,288.5671 372.71621,158.60717 372.71621,158.60717 C 372.71621,158.60717 358.78151,153.46866 358.78151,153.46866 C 337.59547,178.00964 316.64382,202.86214 295.36602,227.26304 C 294.83749,227.46001 294.05497,227.5099 293.41829,227.18308 C 292.7816,226.85626 292.30548,225.87106 291.6531,224.92194 C 291.04971,223.75473 290.95224,223.36481 290.00041,217.56892 C 289.54514,214.79672 289.23273,213.73326 288.01,210.74011 C 286.15727,206.20479 284.39708,202.29794 284.23436,202.34148 C 284.16322,202.36053 284.34173,203.07162 284.59927,203.9129 C 285.5749,207.09995 285.83196,207.92822 286.03759,208.45039 C 286.59109,209.85582 286.70471,210.10164 286.93982,210.85442 C 287.36614,212.21947 287.79888,214.54731 287.98756,216.53596 C 288.08705,217.58458 288.37003,219.28214 288.65304,220.30684 C 289.21193,222.33046 289.38678,225.76982 288.97514,227.08378 C 288.83696,227.52486 288.56875,228.39785 288.19525,228.91704 C 287.42513,229.98756 285.2833,232.39339 285.14547,232.50329 C 284.82337,232.76013 284.26896,232.90879 284.11712,232.99384 C 283.55883,233.30656 279.53484,234.03521 278.62385,233.93128 C 277.81575,233.83908 276.50641,231.9512 276.42598,231.862 C 276.04583,231.44045 273.29596,227.60894 271.59878,225.41293 C 269.90161,223.21691 264.03965,219.81822 264.00975,219.71363 C 263.99481,219.66137 271.62137,226.34945 272.31852,229.37792 C 272.6671,230.89216 274.57765,234.21162 275.10783,236.24417 C 275.63802,238.27672 274.3799,240.41223 274.16064,240.75541 C 273.84952,241.24237 272.34217,242.64441 272.16411,242.82999 C 271.62037,243.39669 268.69144,245.24681 266.46833,246.10361 C 264.72564,246.77525 264.39704,246.83432 263.71846,246.63673 C 258.71371,245.17942 253.4239,244.57572 248.33368,244.86818 C 245.95629,245.00477 238.01117,245.96608 237.99927,246.12369 C 237.98867,246.26381 243.65397,246.11299 246.90587,245.87332 C 247.99584,245.79298 248.79447,245.84168 249.00928,245.82248 C 249.22409,245.80328 250.00802,245.80228 250.5342,245.81511 C 251.62951,245.89787 251.95101,246.00671 252.95898,246.71799 C 253.83044,247.19616 254.02448,247.95176 254.31558,248.36987 C 254.60668,248.78798 255.26702,250.91853 255.12391,251.2924 C 254.9808,251.66628 254.66455,251.94885 254.28979,252.35992 C 253.86914,252.60057 253.69155,252.75502 253.44188,252.89054 C 253.2042,253.01957 250.75952,254.25253 249.15819,254.91745 C 248.47196,255.20237 246.98127,255.68919 245.88494,255.98911 C 243.11357,256.74727 233.86837,259.65889 233.72497,259.81588 C 233.45297,260.11379 233.92457,260.09059 236.39777,259.69415 C 239.85427,259.14007 253.08401,255.742 253.98857,255.48132 C 254.88426,255.2232 260.54778,253.77414 261.00592,253.73687 C 261.49541,253.69705 262.35828,253.56814 262.95302,253.55221 C 263.83013,253.60017 264.47403,253.69826 265.40719,254.38709 C 266.32503,255.06463 267.39311,255.96678 267.90613,257.25948 C 268.42357,258.56328 268.471,259.31381 268.48723,259.90766 C 268.50347,260.5015 268.45541,260.96173 268.34095,261.55071 C 268.22549,262.14481 267.46058,264.46592 266.98628,265.6927 C 266.50524,266.93691 266.06648,267.96377 265.77588,268.81306 C 265.77588,268.81306 265.2398,270.33281 265.2398,270.33281 C 265.2398,270.33281 261.00055,275.52965 261.00055,275.52965 C 258.548,278.15343 256.4912,280.83124 254.93826,283.99356 C 254.46758,284.93782 252.96288,287.87785 253.34255,288.0594 C 253.73785,288.24843 256.97045,285.2005 258.00568,283.81402 C 259.04091,282.42753 260.07815,280.53514 260.9344,279.50309 C 261.8124,278.44484 265.51767,273.6942 266.85251,272.43244 C 268.18527,271.17265 269.25454,270.16308 269.84827,269.81129 C 270.46065,269.44845 271.45799,268.82529 272.21811,268.44052 C 272.99539,268.04706 274.18655,267.38834 276.0884,267.0526 C 277.98211,266.71829 280.73635,267.41094 281.64128,268.49246 C 282.56432,269.59563 282.58539,269.40992 283.34513,271.50608 C 284.53582,274.79127 284.86555,276.28 284.85438,278.58084 C 284.88698,281.07577 284.25898,283.49058 283.95893,285.95069 C 282.32289,296.77539 282.15509,300.26192 283.0426,305.62985 C 283.47219,308.22822 284.74596,312.5855 285.07567,312.51254 C 285.48407,312.42209 284.96997,308.53939 284.1736,305.78518 C 283.54946,303.62667 283.27126,302.11469 283.279,300.63508 C 283.28928,298.66637 283.74097,294.51193 284.026,293.64803 C 284.0966,293.43404 284.29567,292.66731 284.4651,291.90842 C 284.6341,291.15147 285.04698,289.56946 285.3738,288.41211 C 285.69937,287.2592 286.33518,284.37269 286.78374,282.00414 C 287.99983,275.58282 288.06152,275.35387 289.29256,273.67368 C 290.00817,272.69697 290.40054,272.41028 291.13959,271.88049 C 291.87864,271.3507 293.20997,270.97994 294.99252,270.89825 C 296.23933,271.00117 296.82547,271.26874 297.61494,271.69879 C 298.14969,271.99009 298.40505,272.16172 298.71806,272.38388 C 299.04125,272.61326 304.36312,276.01366 307.51477,278.5579 C 311.02443,281.39134 319.05202,286.26699 319.71158,286.6148 C 320.36235,286.95797 321.1878,287.2738 321.18352,286.98142 C 321.17957,286.71136 320.16608,285.76947 318.85068,284.78583 C 317.45752,283.8169 316.28097,282.7749 314.86928,281.66165 C 313.44379,280.53751 309.46242,277.10245 308.14218,275.16164 C 306.78414,273.16525 305.99165,268.67914 305.45607,266.73377 C 305.2358,265.93372 305.16939,265.44851 305.0999,263.59756 C 305.08799,263.28019 306.48224,261.07165 308.84958,260.44038 C 311.21692,259.80912 314.37878,259.05869 317.54495,258.26469 C 320.71111,257.47069 323.88159,256.63311 326.26615,255.82753 C 328.65072,255.02196 330.24938,254.24839 330.27191,253.58241 C 330.29444,252.91643 316.19621,255.78438 314.10106,255.60447 C 312.22838,255.44366 311.37813,255.76822 309.05585,255.05366 C 306.73357,254.33911 309.46977,256.70437 305.45079,250.74287 C 301.30209,244.58896 304.91711,235.36417 304.52405,238.2522 C 304.52405,238.2522 359.02892,172.07437 359.02892,172.07437 C 359.02892,172.07437 369.01523,318.71003 369.01523,318.71003 C 369.01523,318.71003 380.67097,329.78774 380.67097,329.78774 C 380.67097,329.78774 461.18634,207.47343 461.18634,207.47343 C 461.97344,207.61031 462.93871,207.95332 465.42562,208.93245 C 467.57999,209.781 472.02352,211.59558 475.26779,212.9811 C 483.32147,216.42108 481.36976,215.72955 484.78148,211.0638 C 485.93174,209.49087 486.85311,208.11429 486.83332,207.99564 C 486.81362,207.87691 487.57856,206.32285 488.52938,204.55789 C 490.51422,200.87314 490.56584,200.57255 488.87292,199.35245 C 486.76783,197.83537 481.94476,195.98591 477.20943,194.67487 C 473.0544,193.29528 468.80597,192.04945 464.80317,190.34866 C 464.08178,190.20191 461.44543,188.37437 461.60646,188.1359 C 461.66462,188.04975 461.58196,188.00638 461.41975,188.01845 C 461.25749,188.03065 461.21733,187.92456 461.28704,187.82143 C 461.35691,187.71807 461.26927,187.65373 461.1276,187.66434 C 460.98595,187.67495 460.39381,187.24762 459.77493,186.72846 C 459.08387,186.14861 458.44235,185.78735 457.35051,185.45689 C 457.35051,185.45689 457.35038,185.45708 457.35038,185.45708 M 290.44394,244.3668 C 291.42332,244.98342 292.02688,246.23434 292.42812,247.04355 C 293.33696,248.8763 293.31388,251.08554 292.33185,252.26204 C 291.83081,252.86229 290.93455,253.47146 290.5886,253.60616 C 290.22802,253.74656 289.37,254.03743 288.88765,254.22079 C 288.41657,254.39986 287.49793,254.66727 287.03657,254.67148 C 286.57521,254.67569 285.97383,254.62859 285.40048,254.54999 C 284.83222,254.47208 281.92631,252.547 281.61301,252.13328 C 281.00826,251.33459 280.4389,250.22842 280.38968,249.53539 C 280.34047,248.84236 280.40313,248.09744 280.64033,247.10028 C 280.99025,246.17762 282.36562,244.47108 282.70455,244.14829 C 283.06037,243.80941 283.88107,243.56935 284.15292,243.4162 C 284.42477,243.26304 285.85979,242.99375 287.25677,243.11403 C 288.65374,243.23431 289.46455,243.75018 290.44394,244.3668 z"
         id="path3311" />
    </g>
    <text
       xml:space="preserve"
       style="font-size:36px;font-style:normal;font-variant:normal;font-weight:normal;font-stretch:normal;fill:#000000;fill-opacity:1;stroke:none;stroke-width:1px;stroke-linecap:butt;stroke-linejoin:miter;stroke-opacity:1;font-family:Helvetica Neue;-inkscape-font-specification:Helvetica Neue"
       x="271.04111"
       y="1902.8408"
       id="text2544"><tspan
         sodipodi:role="line"
         id="tspan2546"
         x="271.04111"
         y="1902.8408"
         style="font-size:160px">A PYTHON package to</tspan></text>
    <text
       xml:space="preserve"
       style="font-size:36px;font-style:normal;font-variant:normal;font-weight:normal;font-stretch:normal;fill:#000000;fill-opacity:1;stroke:none;stroke-width:1px;stroke-linecap:butt;stroke-linejoin:miter;stroke-opacity:1;font-family:Helvetica Neue;-inkscape-font-specification:Helvetica Neue"
       x="471.79407"
       y="2107.9709"
       id="text2550"><tspan
         sodipodi:role="line"
         id="tspan2552"
         x="471.79407"
         y="2107.9709"
         style="font-size:120px">- automate simulations</tspan><tspan
         sodipodi:role="line"
         x="471.79407"
         y="2257.9709"
         style="font-size:120px"
         id="tspan2562">- simplify analysis</tspan><tspan
         sodipodi:role="line"
         x="471.79407"
         y="2407.9709"
         style="font-size:120px"
         id="tspan2564">- share your code</tspan></text>
    <flowRoot
       xml:space="preserve"
       id="flowRoot2566"
       style="fill:black;fill-opacity:1;stroke:none;stroke-opacity:1;stroke-width:1px;stroke-linejoin:miter;stroke-linecap:butt;font-family:Helvetica Neue;font-style:normal;font-weight:normal;font-size:36;-inkscape-font-specification:Helvetica Neue;font-stretch:normal;font-variant:normal"><flowRegion
         id="flowRegion2568"><rect
           id="rect2570"
           width="831.74506"
           height="819.77753"
           x="-1418.1553"
           y="1489.9606" /></flowRegion><flowPara
         id="flowPara2572"></flowPara></flowRoot>    <text
       xml:space="preserve"
       style="font-size:36px;font-style:normal;font-variant:normal;font-weight:normal;font-stretch:normal;fill:#000000;fill-opacity:1;stroke:none;stroke-width:1px;stroke-linecap:butt;stroke-linejoin:miter;stroke-opacity:1;font-family:Helvetica Neue;-inkscape-font-specification:Helvetica Neue"
       x="220.47539"
       y="2694.3809"
       id="text2574"><tspan
         sodipodi:role="line"
         id="tspan2576"
         x="220.47539"
         y="2694.3809"
         style="font-size:144px;fill:#669966;fill-opacity:1">http://neuralensemble.org</tspan></text>
  </g>
</svg>
